<?xml version="1.0" standalone="no"?>
<!DOCTYPE svg PUBLIC "-//W3C//DTD SVG 20010904//EN"
 "http://www.w3.org/TR/2001/REC-SVG-20010904/DTD/svg10.dtd">
<svg version="1.0" xmlns="http://www.w3.org/2000/svg"
 width="1280.000000pt" height="1096.000000pt" viewBox="0 0 1280.000000 1096.000000"
 preserveAspectRatio="xMidYMid meet">
<metadata>
Created by potrace 1.15, written by Peter Selinger 2001-2017
</metadata>
<g transform="translate(0.000000,1096.000000) scale(0.100000,-0.100000)"
fill="#000000" stroke="none">
<path d="M3845 10931 c-103 -37 -191 -76 -199 -90 -4 -6 -14 -11 -22 -11 -32
0 -9 19 66 54 72 34 99 56 69 56 -20 0 -479 -223 -479 -233 0 -16 43 0 182 68
73 36 134 65 136 65 18 0 -33 -36 -91 -65 -40 -20 -97 -54 -127 -76 -49 -35
-286 -159 -305 -159 -4 0 4 10 19 21 19 15 24 25 17 32 -6 6 -30 -8 -73 -45
-35 -30 -172 -121 -305 -204 -133 -82 -242 -155 -243 -161 0 -7 3 -13 6 -13 4
0 72 41 153 92 199 124 203 126 158 85 -21 -19 -67 -72 -102 -117 -57 -73 -78
-91 -182 -155 -65 -40 -119 -72 -121 -70 -2 2 4 15 13 29 12 17 13 26 5 26
-17 0 -37 23 -32 38 8 25 -42 -8 -68 -44 -87 -123 -152 -193 -261 -280 -66
-53 -122 -100 -125 -105 -3 -5 -10 -9 -16 -9 -6 0 -6 6 2 15 7 9 10 19 6 23
-4 4 -24 -11 -43 -33 -19 -22 -60 -66 -89 -98 -30 -33 -54 -61 -54 -64 0 -2
-38 -49 -85 -104 -48 -54 -118 -150 -157 -211 -40 -62 -83 -124 -97 -138 -15
-14 -57 -59 -95 -100 -38 -41 -62 -62 -52 -46 11 17 14 32 9 37 -9 9 -127
-158 -172 -240 -7 -14 -46 -78 -86 -141 -39 -63 -96 -169 -125 -235 -29 -66
-59 -127 -67 -136 -22 -26 -233 -363 -233 -372 0 -26 33 12 95 111 38 61 71
110 72 108 2 -2 -13 -37 -32 -79 -20 -42 -55 -143 -80 -224 -40 -136 -51 -158
-121 -265 -43 -65 -79 -117 -80 -115 -2 2 7 39 21 83 14 43 25 80 25 82 0 1
-7 2 -15 2 -8 0 -15 -2 -15 -5 0 -16 -81 -269 -89 -279 -6 -7 -9 -15 -6 -18 3
-3 -15 -72 -40 -154 -25 -82 -57 -219 -71 -304 -18 -109 -36 -180 -61 -240
-33 -81 -34 -83 -28 -36 4 27 9 55 12 62 3 8 -1 14 -11 14 -9 0 -16 -3 -16 -8
0 -4 -11 -70 -26 -147 -14 -77 -27 -156 -28 -175 -2 -19 -15 -107 -29 -195
-15 -91 -28 -225 -31 -310 -16 -462 -17 -544 -2 -699 8 -88 13 -163 11 -166
-2 -4 -9 -47 -14 -96 -6 -49 -13 -108 -17 -131 -4 -34 -2 -43 9 -43 11 0 17
20 22 81 4 44 9 79 10 77 2 -2 9 -62 15 -133 7 -72 28 -204 47 -294 19 -90 34
-171 35 -180 0 -34 -15 -121 -21 -121 -4 0 -17 48 -29 107 -23 112 -25 117
-40 112 -8 -4 16 -129 78 -409 12 -53 18 -103 14 -113 -3 -9 -2 -17 3 -17 5 0
17 -35 27 -77 17 -76 120 -399 139 -437 5 -10 33 -91 63 -179 31 -89 91 -235
135 -326 43 -90 79 -173 79 -184 0 -50 24 -147 37 -147 13 0 12 13 -4 75 -10
38 6 9 77 -135 40 -80 114 -211 166 -292 60 -94 94 -156 94 -174 0 -22 -16 -3
-77 94 -47 73 -81 118 -87 112 -8 -8 7 -36 139 -241 194 -302 262 -400 364
-524 306 -369 376 -449 496 -565 78 -75 137 -141 148 -164 13 -28 20 -36 30
-28 9 7 43 -19 127 -99 63 -59 118 -104 123 -100 7 7 -162 180 -237 243 -21
18 -27 30 -22 43 6 16 29 -3 139 -113 73 -73 136 -132 140 -132 26 0 -9 43
-123 153 -71 69 -130 128 -130 131 0 3 12 13 26 22 l25 17 138 -137 c93 -93
141 -134 146 -126 5 8 -40 59 -126 146 l-133 133 55 25 54 25 141 -147 c98
-102 143 -142 149 -133 5 9 -25 46 -91 115 -55 55 -114 118 -133 138 l-33 36
72 22 c40 12 78 24 85 26 6 3 72 -63 146 -145 80 -91 137 -147 143 -141 5 5
-42 66 -119 152 l-127 143 93 22 c52 12 105 23 119 25 20 3 43 -20 149 -149
77 -94 129 -149 134 -144 6 6 -35 64 -107 151 -64 78 -116 145 -116 148 0 7
289 57 294 51 1 -2 54 -74 117 -159 63 -85 172 -218 243 -295 l129 -140 -104
-12 c-379 -45 -664 -104 -778 -162 -45 -24 -75 -64 -66 -91 10 -30 34 -25 32
7 -2 20 6 32 32 50 61 42 237 89 478 128 92 15 395 55 419 55 7 0 67 -61 135
-135 80 -89 126 -132 132 -126 7 7 -27 51 -99 128 -60 65 -112 119 -116 121
-27 12 9 20 130 30 76 7 145 12 153 12 9 0 64 -61 124 -135 60 -74 113 -135
117 -135 20 0 1 29 -92 145 -55 68 -100 126 -100 128 0 2 48 7 108 11 59 4
137 9 173 13 l66 6 93 -137 c97 -142 105 -152 114 -137 3 4 -35 67 -84 139
l-89 130 42 6 c23 3 112 8 198 12 l156 7 72 -136 c40 -75 76 -139 81 -142 26
-16 11 24 -51 140 -38 71 -69 132 -69 137 0 4 39 8 88 8 48 0 144 3 213 6
l125 7 55 -142 c32 -83 59 -141 67 -141 16 0 16 2 -46 157 l-48 120 104 7 c58
3 160 6 228 6 l123 0 10 -37 c6 -21 20 -78 31 -128 30 -126 30 -129 42 -117 7
7 0 54 -21 142 -18 73 -30 134 -28 136 2 2 107 7 234 10 l230 7 6 -44 c4 -24
9 -90 13 -146 5 -82 10 -103 22 -103 12 0 14 10 9 52 -4 29 -9 95 -13 146 l-7
92 235 0 c129 0 237 -2 239 -4 2 -2 0 -65 -5 -140 -8 -123 -6 -159 9 -144 3 3
10 67 16 144 6 76 12 140 13 141 0 1 107 -1 237 -4 l235 -6 -32 -136 c-17 -75
-30 -139 -27 -143 10 -19 20 -4 31 45 7 28 22 93 33 144 l21 92 227 -6 c124
-3 227 -7 228 -8 2 -1 -20 -60 -47 -131 -51 -132 -57 -154 -41 -154 5 0 26 44
47 98 20 53 45 117 54 142 13 33 23 44 36 43 11 -1 108 -5 217 -9 109 -3 197
-9 195 -13 -2 -3 -34 -64 -72 -135 -46 -87 -65 -131 -58 -138 7 -7 19 7 37 43
15 30 49 94 76 144 l48 90 190 -10 c104 -6 193 -13 196 -17 4 -3 -31 -62 -77
-130 -97 -143 -94 -138 -75 -138 11 0 92 113 188 262 5 8 347 -9 358 -18 2 -2
-39 -56 -91 -121 -110 -137 -111 -140 -99 -147 5 -4 58 55 117 129 89 112 112
135 133 134 50 -1 270 -25 275 -30 2 -2 -45 -58 -105 -124 -97 -107 -115 -133
-99 -138 3 -1 36 32 74 73 38 41 94 101 123 132 l53 57 156 -19 c377 -47 656
-105 760 -158 45 -23 76 -54 72 -72 -2 -7 3 -15 10 -17 22 -8 14 52 -10 74
-79 71 -370 141 -828 198 -74 9 -136 18 -136 19 -1 0 52 59 118 131 65 72 171
200 235 285 63 85 119 159 123 164 7 7 237 -25 292 -40 14 -4 -8 -36 -104
-150 -78 -94 -117 -149 -111 -155 6 -6 53 44 133 141 68 82 131 150 139 150
28 0 221 -45 221 -51 0 -3 -54 -66 -120 -140 -66 -74 -120 -137 -120 -141 0
-26 40 10 153 137 l127 143 83 -25 c45 -14 84 -27 86 -29 2 -2 -52 -62 -120
-134 -128 -136 -140 -151 -117 -149 7 1 69 61 138 134 69 73 130 133 137 134
10 1 102 -35 110 -43 2 -1 -56 -61 -128 -133 -87 -86 -129 -135 -124 -143 5
-8 51 31 145 125 120 120 140 136 157 127 53 -29 50 -33 -88 -164 -82 -78
-129 -130 -125 -137 5 -7 56 35 144 119 115 111 137 128 145 113 8 -13 -15
-40 -129 -149 -76 -73 -133 -133 -125 -134 11 0 10 -5 -4 -20 -11 -12 -15 -24
-9 -29 7 -7 351 303 504 454 34 34 36 60 3 34 -10 -8 16 22 57 66 41 44 102
113 135 153 33 40 61 68 63 62 8 -22 23 -7 51 49 16 33 76 115 133 183 140
164 478 671 588 882 94 180 239 472 241 483 0 4 -4 9 -9 11 -5 1 -35 -47 -66
-108 -49 -97 -56 -107 -56 -76 0 23 25 84 79 188 43 84 100 213 126 286 48
132 64 161 46 83 -5 -26 -5 -43 1 -47 16 -10 18 -1 32 112 11 84 27 143 69
259 50 136 107 345 157 575 10 47 28 121 39 165 11 44 27 141 36 215 8 74 20
164 25 200 5 36 14 117 20 180 6 63 14 130 17 148 4 24 2 32 -10 32 -12 0 -17
-19 -23 -90 -3 -49 -10 -90 -15 -90 -5 0 -9 12 -9 28 0 15 -4 41 -9 58 -6 21
-3 86 10 195 28 245 27 754 -2 974 -11 88 -22 178 -24 200 -2 22 -13 105 -24
185 -12 80 -21 146 -21 148 0 1 -5 2 -11 2 -12 0 -6 -118 8 -157 3 -10 2 -15
-2 -10 -5 4 -26 49 -47 100 -32 76 -42 118 -58 239 -18 137 -78 408 -116 521
-9 26 -14 50 -11 53 2 3 22 -49 43 -116 23 -74 43 -120 51 -120 18 0 12 20
-58 215 -75 211 -100 273 -259 640 -26 61 -51 120 -54 133 -4 12 -11 22 -16
22 -5 0 -29 41 -54 91 -25 50 -55 103 -65 118 -11 15 -44 74 -74 132 -106 203
-214 382 -225 375 -4 -2 -25 27 -47 65 -21 38 -45 69 -52 69 -18 0 -17 -4 12
-50 14 -22 23 -40 21 -40 -11 0 -165 183 -161 190 11 18 -8 41 -30 36 -19 -5
-27 3 -55 57 -63 121 -84 153 -167 259 -45 58 -83 111 -83 116 0 4 -12 19 -26
33 -14 13 -51 57 -81 97 -38 49 -60 69 -67 62 -6 -6 -2 -18 14 -35 47 -51 7
-23 -98 67 -59 50 -120 100 -135 112 -16 12 -57 59 -92 106 -55 74 -152 171
-353 355 -38 35 -56 45 -61 36 -11 -17 -266 148 -353 229 -43 40 -71 59 -79
54 -9 -5 -3 -16 21 -36 19 -15 31 -28 27 -28 -4 0 -103 48 -219 107 -196 99
-218 112 -273 171 l-60 64 166 -86 c91 -47 169 -86 172 -86 4 0 7 6 7 13 0 7
-114 69 -252 137 -139 69 -276 140 -305 158 -28 19 -57 31 -63 27 -7 -4 45
-45 127 -100 76 -51 156 -112 178 -135 l40 -41 -55 21 c-260 102 -451 170
-461 164 -16 -10 -17 -9 286 -124 l270 -102 68 -71 c63 -68 129 -153 156 -204
11 -22 10 -22 -16 -12 -16 6 -140 53 -278 104 -137 51 -258 96 -267 100 -10 4
-37 43 -60 86 -23 44 -46 78 -51 76 -12 -4 -10 -11 24 -78 16 -34 29 -62 27
-64 -2 -1 -149 37 -328 86 -179 49 -326 89 -326 89 -1 0 -14 34 -30 75 -16 41
-34 75 -41 75 -16 0 -17 5 12 -70 26 -67 30 -84 17 -76 -19 11 -749 135 -857
145 -66 6 -235 22 -375 36 -217 21 -326 26 -730 30 -261 3 -483 8 -493 11 -10
3 -29 -2 -43 -11 -21 -14 -55 -17 -202 -17 -98 0 -195 5 -217 10 -57 16 -144
21 -152 9 -7 -12 17 -27 42 -26 42 3 98 -1 93 -6 -3 -3 -43 -9 -89 -14 -63 -6
-87 -5 -94 4 -7 9 -54 11 -175 9 -163 -3 -233 3 -182 15 39 10 24 26 -21 23
-23 -1 -83 -14 -133 -27 -106 -29 -110 -29 -95 -12 10 13 6 27 -9 27 -4 0 -12
-11 -18 -25 -6 -13 -29 -33 -52 -45 -22 -11 -40 -24 -40 -29 0 -4 -14 -12 -31
-17 -17 -5 -30 -13 -30 -19 1 -15 47 -18 71 -5 21 11 40 7 27 -6 -4 -4 -77
-24 -164 -45 -140 -34 -158 -36 -168 -22 -10 14 -19 14 -89 -1 -43 -9 -97 -25
-121 -35 -24 -10 -57 -22 -75 -26 -31 -7 -31 -6 -19 17 6 12 20 35 31 50 18
26 17 55 -2 43 -4 -3 -25 -34 -46 -70 -34 -57 -46 -69 -99 -95 -33 -16 -125
-51 -205 -78 -80 -28 -185 -64 -234 -81 -49 -17 -93 -31 -98 -31 -19 0 98 144
173 213 l80 74 276 96 c152 53 278 99 281 101 2 3 1 9 -2 14 -3 6 -38 -2 -83
-18 -213 -77 -418 -148 -421 -146 -5 6 144 88 218 120 41 18 96 38 123 46 27
7 47 18 47 26 0 18 0 18 -95 -15z m2770 -16 c433 -7 877 -52 1376 -141 l375
-67 37 -96 c38 -96 91 -280 84 -288 -4 -4 -759 126 -765 132 -2 1 -10 48 -19
104 -11 70 -20 101 -29 101 -9 0 -12 -9 -9 -27 3 -16 9 -55 15 -87 15 -87 15
-86 -29 -86 -73 0 -101 10 -101 36 0 13 -4 24 -9 24 -5 0 -17 3 -26 7 -15 5
-16 1 -10 -26 l7 -32 -39 6 c-35 5 -566 55 -585 55 -4 0 -8 44 -8 98 0 97 0
99 27 111 l26 12 -24 17 c-18 12 -51 18 -128 21 l-104 3 7 -28 c4 -16 9 -30
10 -31 1 -1 36 -3 78 -5 l76 -3 6 -93 c4 -52 6 -95 4 -97 -2 -2 -187 -1 -412
2 l-408 6 7 96 c4 53 9 98 11 100 2 3 10 -1 16 -7 18 -18 52 -14 82 9 15 12
37 21 49 20 12 0 33 0 47 0 14 0 81 1 150 2 69 1 131 6 138 10 27 18 9 35 -55
55 -173 51 -286 65 -433 53 -25 -2 -68 -3 -95 -1 -63 3 -117 -8 -112 -23 2 -7
22 -13 45 -15 54 -4 55 -22 1 -22 -32 0 -40 -3 -35 -15 4 -12 -6 -15 -63 -15
-47 0 -72 -4 -80 -14 -10 -12 -8 -17 8 -26 23 -12 24 -12 194 -5 l119 5 -6
-38 c-3 -20 -8 -67 -11 -104 l-7 -68 -36 0 c-20 0 -100 -5 -177 -10 -77 -5
-219 -14 -315 -20 -96 -5 -199 -13 -229 -16 -52 -6 -53 -5 -48 18 3 12 13 57
22 98 l16 75 57 1 c63 1 172 14 172 21 0 2 -4 12 -9 22 -13 24 -202 29 -256 7
-35 -15 -40 -36 -9 -36 8 0 14 -8 14 -17 0 -27 -33 -177 -40 -186 -4 -5 -158
-31 -341 -58 -295 -43 -339 -48 -376 -37 -24 7 -43 15 -43 18 0 19 56 167 93
248 29 64 48 94 62 97 11 3 156 25 323 50 279 41 483 58 425 35 -56 -23 -4
-47 67 -31 25 5 92 13 150 17 202 13 291 38 228 63 -18 8 -6 10 52 11 41 1
113 5 160 9 47 4 146 6 220 4 74 -2 266 -5 425 -8z m-1420 -24 c-6 -4 -111
-23 -235 -40 -124 -18 -236 -35 -250 -38 -24 -5 -25 -5 -5 11 19 15 19 17 2
30 -12 9 -14 16 -7 21 5 3 112 9 237 11 125 3 229 7 232 10 2 2 11 4 20 4 9 0
11 -3 6 -9z m481 -12 c-10 -6 -75 -15 -145 -19 -69 -5 -135 -11 -146 -15 -20
-7 -20 -6 -1 9 11 9 16 17 10 17 -36 5 82 17 181 17 90 1 115 -1 101 -9z m674
-47 c23 -14 50 -22 81 -22 25 0 54 -7 65 -15 18 -15 17 -15 -16 -11 -107 15
-144 16 -179 5 -22 -6 -48 -8 -58 -4 -29 13 -66 5 -99 -20 l-32 -24 -38 19
c-21 11 -46 20 -56 20 -10 0 -18 6 -18 14 0 7 -8 16 -18 19 -11 2 -21 13 -24
23 -5 18 3 19 176 19 170 0 183 -1 216 -23z m-1708 6 c-17 -17 -15 -26 6 -31
9 -3 4 -5 -13 -6 -16 -1 -40 -4 -53 -7 -34 -10 -17 25 22 42 39 17 54 18 38 2z
m2183 -78 c49 -7 48 -7 -27 -9 -42 0 -80 4 -83 9 -7 12 37 12 110 0z m-2315
-14 c0 -2 -18 -41 -39 -87 -22 -46 -50 -118 -62 -159 l-23 -76 -67 -2 c-37 -1
-79 -6 -94 -12 -14 -5 -36 -10 -48 -10 -12 0 -65 -13 -117 -29 -86 -26 -140
-41 -210 -58 -23 -6 -21 -3 13 29 20 19 37 41 37 48 0 18 40 71 50 65 8 -5
101 100 143 159 10 15 22 24 27 21 11 -7 41 8 63 30 22 22 327 98 327 81z
m865 -25 c-11 -11 -42 -14 -100 -11 -32 1 -36 3 -20 10 27 12 132 13 120 1z
m-1209 -20 c-6 -8 -66 -21 -66 -14 0 5 43 22 58 22 7 1 11 -3 8 -8z m4559 -91
c165 -44 310 -84 321 -89 13 -6 42 -48 71 -103 51 -98 120 -275 110 -284 -5
-5 -697 172 -705 181 -2 2 -16 52 -32 112 -15 59 -41 143 -59 186 -35 89 -35
88 -18 82 6 -2 147 -40 312 -85z m-4660 71 c-12 -11 -91 -33 -80 -23 7 8 64
30 80 31 5 1 5 -2 0 -8z m-697 -64 c-31 -29 -82 -88 -113 -132 -42 -60 -68
-86 -102 -103 -37 -19 -47 -21 -54 -10 -5 8 1 23 20 43 15 16 38 45 50 63 13
18 50 51 84 74 34 23 72 53 84 67 24 25 60 49 78 50 6 0 -16 -23 -47 -52z
m691 3 c-19 -16 -37 -30 -41 -30 -4 0 -7 -10 -5 -22 2 -19 -4 -24 -29 -26 -39
-4 -96 -58 -75 -71 9 -6 10 -11 2 -15 -6 -4 -20 -25 -31 -46 -11 -21 -40 -53
-65 -70 -45 -31 -57 -56 -31 -66 8 -3 25 0 38 7 13 7 32 14 43 15 32 4 154 33
225 53 88 26 154 40 223 47 46 6 57 4 57 -8 0 -11 -88 -35 -350 -97 -193 -45
-355 -81 -359 -79 -15 5 70 195 131 293 l56 90 104 26 c139 36 149 36 107 -1z
m-831 -50 c-26 -17 -59 -47 -74 -68 -15 -20 -43 -54 -62 -75 -18 -21 -31 -44
-29 -51 10 -25 -25 -48 -192 -126 -95 -44 -174 -80 -177 -80 -16 0 112 140
191 209 74 64 121 95 208 137 61 30 123 61 137 69 46 27 44 15 -2 -15z m530
-72 c-28 -45 -70 -129 -94 -186 -23 -58 -47 -108 -51 -112 -4 -4 -76 -30 -159
-57 l-150 -50 -40 20 c-35 18 -45 19 -103 9 -43 -7 -79 -21 -108 -41 -24 -17
-43 -28 -43 -26 0 12 69 142 86 163 15 17 33 24 84 28 36 4 81 15 100 25 99
51 210 96 237 97 46 1 90 32 207 145 38 37 73 67 77 67 5 0 -15 -37 -43 -82z
m5982 -32 c204 -103 219 -112 298 -190 73 -71 192 -216 177 -216 -3 0 -118 56
-255 125 l-250 125 -56 88 c-31 48 -77 109 -102 136 -26 27 -42 47 -37 45 6
-2 107 -53 225 -113z m-6055 39 c-27 -25 -52 -45 -56 -45 -5 0 -22 -13 -39
-30 -21 -21 -41 -30 -63 -30 -18 0 -88 -26 -162 -61 -90 -42 -145 -62 -177
-64 -27 -1 -48 -1 -48 1 0 2 16 26 35 53 33 46 41 51 143 86 59 20 175 60 257
89 83 29 152 51 154 49 3 -2 -17 -24 -44 -48z m2321 -22 c-3 -21 -8 -67 -12
-103 -5 -52 -11 -68 -32 -84 -36 -29 -187 -76 -236 -75 -47 2 -86 -8 -86 -22
0 -5 -21 -9 -47 -9 -33 0 -64 -9 -98 -28 -42 -23 -52 -33 -60 -67 -13 -52 -22
-65 -46 -65 -11 0 -32 -12 -47 -27 -25 -26 -34 -28 -129 -31 -92 -4 -103 -2
-103 13 0 34 41 283 63 380 l22 100 45 3 c191 13 730 50 748 51 22 1 23 -2 18
-36z m850 23 c1 0 5 -77 9 -171 l7 -170 -151 -3 c-138 -2 -152 -1 -157 15 -15
49 -49 66 -155 78 -52 6 -61 11 -74 35 -8 16 -22 27 -32 26 -33 -3 -63 -26
-63 -50 0 -20 -7 -25 -57 -35 -32 -6 -71 -18 -86 -26 -27 -14 -30 -13 -47 8
-18 22 -18 22 11 28 33 7 69 36 69 54 0 22 -28 37 -71 38 l-41 2 6 65 c3 36 6
77 6 92 l0 27 413 -6 c226 -3 413 -6 413 -7z m359 -31 c302 -28 311 -29 341
-55 22 -19 29 -31 24 -46 -7 -19 4 -34 28 -34 15 0 16 36 1 46 -8 4 -8 9 0 17
7 7 7 14 0 24 -9 11 -2 12 37 7 27 -4 50 -7 51 -8 4 -3 43 -301 48 -371 3 -44
8 -90 11 -102 4 -21 1 -23 -35 -23 -31 0 -43 5 -51 21 -7 11 -39 33 -73 48
l-62 28 44 0 c50 0 59 10 53 58 l-4 36 -67 -1 c-36 -1 -104 3 -151 9 -47 6
-108 11 -135 11 -42 0 -52 3 -60 23 -10 22 -54 31 -98 20 -17 -4 -17 -6 -3
-22 20 -22 20 -37 0 -45 -30 -11 -155 -6 -189 8 l-34 15 -3 181 c-3 177 -2
193 11 186 3 -2 146 -16 316 -31z m2542 -287 c60 -93 159 -298 143 -298 -4 0
-148 51 -320 113 l-313 114 -37 104 c-20 57 -57 142 -81 189 -24 47 -45 88
-47 91 -1 3 131 -44 295 -105 l297 -111 63 -97z m-4618 140 c-15 -73 -33 -178
-40 -234 l-12 -101 -124 1 c-113 1 -126 -1 -141 -19 -9 -11 -24 -21 -32 -22
-8 -1 -46 -14 -85 -28 -85 -32 -195 -43 -195 -19 0 11 -6 15 -20 11 -11 -3
-20 -1 -20 4 0 4 -19 13 -42 20 -47 12 -82 40 -104 80 -11 23 -11 29 1 39 8 6
19 28 26 48 6 20 17 48 24 62 7 14 19 41 26 60 7 19 25 50 41 68 15 18 28 39
28 47 0 8 1 15 3 16 17 4 649 97 668 98 l25 1 -27 -132z m2984 28 c203 -35
371 -66 373 -69 12 -11 68 -244 88 -364 19 -117 20 -133 7 -133 -9 1 -194 31
-411 68 l-395 67 -13 130 c-7 72 -21 183 -30 248 -16 105 -17 117 -3 117 9 0
182 -29 384 -64z m-4984 -36 c-22 -29 -24 -30 -36 -13 -12 15 -9 19 19 34 18
10 35 16 36 14 2 -2 -7 -18 -19 -35z m1266 -30 c-19 -28 -35 -56 -35 -62 0 -5
-11 -33 -24 -61 -12 -29 -26 -59 -29 -67 -5 -13 -5 -13 -6 0 0 8 17 67 37 130
33 98 42 115 63 120 13 4 25 3 27 0 1 -4 -13 -31 -33 -60z m-82 -57 c-19 -60
-47 -164 -62 -233 l-27 -125 -28 3 c-15 2 -36 12 -47 23 -20 20 -74 26 -84 9
-3 -5 -1 -10 4 -10 6 0 11 -4 11 -8 0 -11 -59 -2 -66 10 -4 5 -1 15 5 21 6 6
11 21 11 34 0 12 8 26 17 32 15 8 15 13 5 36 -7 15 -11 30 -8 32 9 9 87 -19
93 -33 7 -20 23 -17 23 4 0 19 -21 33 -78 51 -49 16 -65 5 -59 -39 l5 -38 -27
14 c-14 8 -32 14 -38 14 -7 0 -13 4 -13 9 0 5 -17 17 -38 26 -33 15 -38 21
-34 45 2 15 -1 30 -6 34 -5 3 -36 -6 -68 -21 -42 -19 -80 -28 -137 -31 l-78
-5 16 39 c9 22 19 42 23 45 4 4 138 37 297 74 160 37 313 73 340 80 89 23 87
28 48 -92z m-1243 35 c0 -16 -8 -42 -19 -56 -10 -15 -37 -64 -59 -109 -23 -45
-47 -85 -53 -88 -19 -12 -160 -45 -191 -45 -16 0 -64 -9 -106 -19 -119 -29
-142 -32 -142 -18 0 6 33 52 73 101 l72 88 200 93 c110 51 206 90 213 88 6 -3
12 -19 12 -35z m3014 34 c9 -15 -9 -30 -47 -37 -39 -8 -51 7 -25 33 13 13 64
16 72 4z m216 -22 c0 -5 -9 -10 -21 -10 -11 0 -17 5 -14 10 3 6 13 10 21 10 8
0 14 -4 14 -10z m3917 -94 c114 -74 189 -133 268 -208 113 -108 205 -219 155
-187 -14 9 -105 67 -203 130 l-179 114 -68 96 c-38 53 -86 110 -107 127 -68
56 -27 34 134 -72z m-4249 -36 c-5 -68 -13 -127 -19 -130 -5 -3 -109 -12 -231
-18 -123 -7 -257 -15 -298 -19 -76 -6 -86 3 -27 23 34 11 40 20 56 79 9 34 17
43 53 58 24 9 62 17 84 17 27 0 49 7 64 20 17 15 37 20 76 20 53 0 215 47 237
69 6 6 11 10 12 8 1 -1 -2 -58 -7 -127z m2911 39 c194 -50 351 -97 357 -105
33 -42 158 -474 142 -489 -3 -3 -18 -1 -34 5 -16 5 -185 48 -375 96 l-346 86
-17 107 c-15 90 -64 314 -82 374 -3 9 -2 17 2 17 4 0 163 -41 353 -91z m1111
-53 l252 -124 75 -104 c71 -97 181 -303 159 -295 -6 3 -131 62 -278 132 l-266
128 -47 109 c-25 61 -71 148 -100 194 -30 46 -53 84 -51 84 2 0 117 -56 256
-124z m-3542 82 c56 -9 65 -14 73 -38 15 -42 42 -48 188 -42 152 6 151 7 151
-75 l0 -53 -371 0 -371 0 5 21 c7 26 -8 67 -34 95 -12 12 -17 28 -13 37 8 21
90 46 177 54 37 3 67 9 67 13 0 7 35 4 128 -12z m-418 -44 c0 -13 -28 -39 -35
-32 -2 2 -2 21 2 41 5 34 7 35 19 20 7 -10 14 -23 14 -29z m-2440 -19 c0 -4
-7 -19 -15 -34 -12 -24 -23 -30 -62 -35 -127 -16 -163 -18 -163 -9 0 5 48 25
108 45 108 37 132 43 132 33z m2484 -53 c32 -47 33 -59 1 -74 -22 -10 -28 -7
-55 21 -24 26 -28 37 -20 51 8 15 33 36 46 40 1 0 13 -17 28 -38z m1233 -2 c3
-11 13 -20 23 -20 10 0 33 -14 51 -31 23 -21 45 -32 73 -34 64 -6 215 -75 166
-75 -18 0 -724 62 -727 64 -1 1 -3 24 -5 51 -2 41 0 49 12 46 70 -19 135 -24
188 -13 32 7 77 12 100 12 23 0 42 5 42 10 0 6 16 10 36 10 27 0 37 -5 41 -20z
m193 -37 c0 -20 -5 -23 -40 -21 -30 1 -44 7 -55 25 -15 23 -15 23 24 23 22 0
43 5 47 11 9 15 24 -9 24 -38z m-4257 22 c-1 -5 -65 -30 -142 -56 -87 -30
-138 -42 -135 -34 6 16 115 84 152 95 36 11 127 8 125 -5z m641 -37 c103 -49
128 -65 117 -73 -7 -4 -10 -13 -7 -21 3 -7 1 -16 -4 -19 -16 -10 -11 -41 8
-57 9 -8 33 -18 54 -21 28 -4 40 -1 54 14 15 17 20 18 29 6 5 -8 28 -17 50
-22 22 -4 34 -10 28 -12 -19 -7 -758 -171 -760 -169 -5 5 79 278 101 327 27
62 39 68 140 70 28 0 67 6 86 13 29 11 37 10 49 -2 8 -8 33 -23 55 -34z m3714
20 c3 -14 -3 -18 -27 -18 -17 0 -31 2 -31 4 0 2 -3 12 -6 21 -6 14 -1 16 27
13 23 -2 35 -9 37 -20z m-5090 -76 c-65 -82 -107 -108 -155 -96 -11 3 -30 1
-42 -5 -33 -18 -25 5 11 31 50 37 243 156 246 153 2 -2 -25 -39 -60 -83z
m7090 -26 c172 -63 315 -116 316 -117 2 -2 29 -62 59 -134 51 -120 124 -351
114 -361 -2 -2 -155 49 -339 113 l-335 116 -28 121 c-15 67 -47 178 -71 249
-23 70 -40 127 -36 127 4 0 148 -51 320 -114z m-6054 82 c-3 -13 -13 -36 -21
-51 -8 -15 -34 -96 -57 -180 l-44 -152 -337 -108 c-185 -60 -339 -107 -341
-105 -10 10 89 274 142 380 l59 118 169 56 169 57 66 -12 c54 -10 75 -9 116 3
75 21 88 20 79 -6z m-1181 -14 c12 -13 -23 -61 -65 -89 -24 -16 -49 -33 -55
-38 -23 -17 -14 0 27 49 22 26 37 50 35 53 -3 2 0 10 6 18 12 14 41 18 52 7z
m3642 -4 c3 -5 1 -10 -4 -10 -6 0 -11 5 -11 10 0 6 2 10 4 10 3 0 8 -4 11 -10z
m-1652 -89 c19 -11 41 -21 49 -21 14 0 58 -32 58 -42 0 -3 -28 -8 -62 -11 -35
-3 -76 -9 -93 -12 -54 -10 -60 3 -40 90 l17 77 18 -29 c10 -17 34 -40 53 -52z
m1604 14 c-3 -19 -11 -153 -17 -298 -7 -144 -14 -267 -15 -274 -2 -6 -40 -14
-97 -18 -189 -13 -733 -43 -736 -40 -2 2 17 22 43 46 25 23 51 52 57 62 9 17
8 19 -8 13 -11 -4 -34 -10 -53 -13 l-33 -6 16 31 c12 24 15 45 10 87 -5 41 -4
55 6 55 8 0 11 11 8 32 -3 18 -2 46 3 61 7 24 5 30 -10 34 -10 3 -28 17 -39
32 -19 26 -20 34 -10 102 6 41 13 76 14 77 6 8 95 -52 105 -70 6 -12 19 -18
32 -16 17 2 23 11 25 40 2 29 9 38 32 48 25 10 461 44 619 49 l54 1 -6 -35z
m900 21 c1 0 5 -140 9 -309 l7 -307 -145 0 c-80 0 -288 3 -462 7 l-318 6 6
106 c3 58 11 198 18 310 l12 204 435 -7 c240 -4 437 -9 438 -10z m-3930 -2
c-5 -5 -548 -254 -555 -254 -2 0 51 98 84 153 7 12 26 20 50 22 21 3 75 13
119 24 44 12 94 21 111 21 17 0 53 6 80 14 42 13 71 19 108 25 5 0 7 -2 3 -5z
m2068 -4 c37 0 54 -4 45 -9 -18 -10 -211 -33 -218 -26 -3 2 1 11 7 19 14 16
54 25 86 20 11 -2 47 -4 80 -4z m2314 -30 c184 -17 337 -32 339 -35 3 -3 -4
-5 -16 -5 -32 0 -16 -27 21 -37 18 -4 48 -8 67 -8 l35 0 12 -125 c6 -69 15
-198 19 -288 l7 -164 -44 6 c-24 3 -213 20 -419 36 -206 17 -390 33 -407 36
l-33 5 0 309 0 310 43 -5 c23 -3 192 -19 376 -35z m3232 -117 l177 -113 84
-113 c73 -98 188 -287 174 -287 -3 0 -105 63 -228 140 l-222 140 -66 128 c-36
70 -84 153 -107 184 -50 67 -53 77 -15 52 15 -10 106 -69 203 -131z m-5316
108 c-3 -11 -1 -22 5 -26 5 -3 10 -10 10 -16 0 -5 -19 3 -41 18 -40 27 -41 28
-18 34 42 12 51 10 44 -10z m-2373 -112 c-30 -62 -75 -173 -100 -248 l-47
-136 -290 -127 c-159 -70 -293 -127 -297 -128 -15 -1 89 245 155 367 l72 132
275 125 c151 69 277 125 280 125 3 1 -19 -49 -48 -110z m2213 99 c-3 -7 -18
-13 -35 -13 -16 0 -35 6 -41 13 -10 10 -4 12 34 12 33 0 45 -4 42 -12z m-89
-27 c26 -16 31 -24 27 -46 -4 -18 1 -33 17 -50 22 -24 22 -26 10 -117 -6 -51
-17 -154 -23 -228 l-12 -135 -430 -56 c-236 -31 -431 -56 -432 -54 -7 5 40
307 68 442 29 138 34 151 50 143 25 -14 59 -12 59 3 1 6 8 -1 16 -16 15 -28
16 -28 35 -11 13 12 39 18 81 20 34 2 65 1 69 -2 4 -2 -4 -16 -18 -30 -20 -20
-22 -28 -13 -39 18 -22 37 -18 45 8 4 12 7 25 6 30 -2 11 17 8 25 -4 3 -6 17
-9 30 -6 18 3 24 0 24 -14 0 -26 47 -25 105 3 49 24 56 41 25 60 -28 18 -25
26 16 43 20 8 52 28 70 45 42 36 102 41 150 11z m2762 8 c9 0 2 -5 -17 -10
-36 -11 -47 -7 -36 11 4 6 14 9 22 6 8 -3 22 -6 31 -7z m-2938 -8 c0 -5 -22
-18 -49 -30 -56 -24 -69 -45 -44 -73 19 -21 12 -30 -34 -46 -26 -9 -33 -8 -33
2 0 7 -6 21 -14 32 -13 17 -18 17 -36 6 -19 -12 -25 -11 -46 9 -21 20 -31 21
-113 17 -67 -3 -92 -1 -95 9 -7 18 -2 20 124 33 63 6 151 18 195 26 44 8 91
16 105 18 14 2 28 4 33 5 4 0 7 -3 7 -8z m3797 -134 c3 -4 17 -78 48 -264 l6
-32 -36 15 c-20 8 -57 17 -83 19 -110 10 -190 24 -235 39 -26 9 -52 14 -57 11
-5 -3 -14 3 -19 14 -6 10 -25 28 -43 40 -18 12 -48 32 -67 46 -19 14 -47 25
-62 25 -23 0 -29 4 -29 23 0 12 -8 32 -18 43 -24 29 -139 105 -182 120 -19 7
-36 19 -38 26 -2 12 80 1 404 -53 223 -37 408 -70 411 -72z m-6343 118 c-5
-13 5 -15 67 -12 41 2 82 7 91 11 12 6 2 -21 -32 -82 l-50 -89 -225 -136
c-124 -75 -225 -134 -225 -131 0 21 115 189 190 281 70 84 154 162 187 172 1
1 0 -6 -3 -14z m2798 -35 c-5 -32 -16 -39 -26 -15 -7 20 3 45 18 45 8 0 11
-11 8 -30z m2786 -25 c28 -5 140 -83 152 -106 6 -11 8 -29 5 -39 -5 -17 -2
-20 25 -20 46 0 87 -23 154 -85 34 -32 65 -54 73 -51 7 3 34 -1 59 -10 24 -8
97 -21 162 -29 154 -18 180 -28 186 -68 9 -56 28 -258 24 -261 -2 -2 -840 129
-855 134 0 0 -4 53 -7 118 -9 152 -25 357 -32 405 -6 37 -5 38 16 27 12 -6 29
-13 38 -15z m2397 -116 l272 -131 71 -146 c63 -130 140 -338 129 -349 -2 -2
-134 56 -292 129 l-289 133 -46 155 c-26 85 -65 197 -88 248 -22 50 -38 92
-35 92 3 0 128 -59 278 -131z m-6029 94 c-17 -58 -67 -328 -81 -443 -10 -74
-23 -140 -29 -146 -6 -6 -81 -26 -166 -43 -85 -18 -260 -55 -389 -82 -128 -28
-235 -49 -236 -47 -8 8 68 369 102 482 l38 129 350 79 c193 43 355 80 360 82
6 3 20 5 33 5 18 1 22 -3 18 -16z m-2152 -55 c-4 -7 -27 -36 -52 -64 -24 -28
-73 -101 -110 -162 -67 -109 -68 -111 -231 -242 -90 -72 -165 -129 -167 -128
-2 2 18 38 45 79 83 128 235 294 381 415 74 62 136 113 138 114 2 0 0 -6 -4
-12z m3052 -28 c16 0 19 -26 4 -35 -6 -3 -6 -15 0 -30 8 -20 6 -27 -11 -36
-16 -8 -18 -13 -9 -24 12 -14 9 -72 -6 -143 -6 -29 -3 -34 15 -39 21 -5 21 -7
-15 -44 -53 -54 -67 -52 -60 9 3 26 10 94 16 152 21 235 22 236 38 212 8 -12
21 -22 28 -22z m3899 -50 c198 -50 366 -94 374 -98 19 -11 74 -250 102 -445
12 -86 20 -159 18 -161 -5 -5 -285 59 -323 73 -16 7 -27 23 -36 57 -13 47 -71
124 -94 124 -6 0 -44 29 -83 65 -43 37 -107 81 -155 105 -46 23 -92 47 -103
53 -11 7 -21 13 -23 13 -3 1 -52 281 -52 297 0 4 3 7 7 7 4 0 169 -41 368 -90z
m-6716 -32 c-7 -13 -33 -61 -60 -108 -26 -47 -71 -146 -99 -221 l-52 -136
-241 -141 c-133 -77 -243 -139 -244 -138 -9 8 107 254 170 361 l76 130 223
137 c123 75 227 137 231 137 4 1 2 -9 -4 -21z m8662 -109 c113 -94 163 -144
230 -231 57 -74 85 -117 82 -129 -4 -13 3 -22 19 -30 21 -9 94 -116 86 -125
-2 -1 -79 60 -172 136 l-169 139 -63 115 c-34 64 -85 145 -113 181 -28 36 -50
65 -48 65 3 0 69 -54 148 -121z m-7541 104 c0 -5 -18 -69 -39 -144 -21 -75
-51 -208 -67 -297 l-28 -160 -166 -50 c-91 -27 -250 -76 -353 -107 -104 -31
-190 -55 -193 -53 -10 10 70 337 114 463 l48 139 224 72 c124 40 272 88 330
107 111 37 130 41 130 30z m6353 -188 c183 -64 335 -119 339 -123 24 -26 151
-582 136 -597 -3 -4 -698 222 -705 229 -1 1 -13 80 -27 176 -20 144 -56 320
-82 413 -3 9 -3 17 1 17 3 0 155 -52 338 -115z m1025 -39 l222 -140 71 -134
c60 -113 156 -348 147 -358 -5 -4 -459 272 -473 288 -7 7 -32 72 -55 143 -24
72 -67 179 -97 239 -30 59 -50 106 -46 105 5 -2 109 -67 231 -143z m-2002 -33
c86 -44 210 -140 229 -176 7 -14 19 -21 33 -20 23 3 62 -43 62 -72 0 -9 5 -26
11 -37 10 -19 9 -20 -12 -15 -13 3 -105 25 -204 48 -99 23 -184 45 -189 50
-11 10 -37 249 -29 262 3 4 8 7 11 5 4 -2 43 -22 88 -45z m-6140 -102 c-25
-73 -61 -207 -81 -298 -19 -92 -36 -167 -38 -168 -9 -6 -612 -253 -614 -252
-1 1 16 72 37 157 30 124 136 432 151 444 11 8 584 254 587 252 1 -2 -18 -63
-42 -135z m3265 -211 c-6 -129 -11 -281 -11 -338 0 -75 -3 -102 -12 -102 -7 0
-213 -11 -458 -25 -245 -14 -450 -25 -455 -25 -12 0 -4 193 21 484 l17 199 30
27 29 26 417 23 c229 13 418 26 421 28 11 10 11 -72 1 -297z m912 281 l47 -1
0 -366 0 -367 -472 8 c-260 4 -474 8 -475 9 -3 3 16 538 22 641 l6 90 412 -6
c227 -4 433 -7 460 -8z m-5099 -102 c-31 -52 -83 -156 -115 -233 -32 -76 -59
-139 -61 -140 -2 -2 -85 -66 -185 -144 -101 -78 -183 -138 -183 -134 0 27 101
228 172 342 l84 135 169 137 c94 75 171 135 173 133 2 -1 -23 -45 -54 -96z
m5676 60 c212 -17 388 -34 391 -38 9 -9 29 -418 29 -583 l0 -138 -27 0 c-38 0
-830 60 -870 66 l-33 5 0 366 0 366 63 -6 c34 -3 235 -20 447 -38z m3055 -132
l270 -125 48 -144 c53 -157 122 -463 103 -454 -235 101 -593 260 -599 265 -4
4 -20 81 -36 172 -16 90 -45 220 -65 289 -20 68 -36 128 -36 132 0 10 7 7 315
-135z m-5465 124 c0 -5 -16 -12 -35 -15 -38 -7 -75 -47 -75 -80 0 -13 -12 -28
-31 -39 -23 -13 -30 -23 -26 -37 4 -17 -5 -26 -46 -48 -29 -15 -68 -33 -87
-40 -41 -15 -50 -27 -50 -71 0 -23 -9 -44 -30 -68 -16 -18 -30 -42 -30 -52 0
-11 -16 -32 -35 -48 -33 -26 -35 -32 -38 -93 -1 -36 -6 -71 -10 -77 -12 -19
-1 -31 49 -55 l45 -21 23 22 c19 18 25 19 34 8 9 -10 9 -18 -1 -30 -9 -13 -73
-24 -301 -52 -159 -19 -291 -34 -293 -32 -7 8 28 405 51 562 l22 160 60 8
c106 15 779 105 792 106 6 1 12 -3 12 -8z m3262 -96 c227 -36 418 -67 423 -69
14 -5 43 -321 52 -554 l6 -173 -24 6 c-13 3 -177 27 -364 55 -410 59 -489 71
-493 75 -1 1 -7 141 -12 311 -5 170 -12 333 -16 362 -4 34 -3 52 4 52 6 0 197
-29 424 -65z m-3267 23 c-10 -75 -26 -275 -36 -453 -6 -104 -13 -192 -15 -194
-5 -5 -195 -30 -232 -31 -21 0 -22 3 -16 42 6 32 4 39 -6 33 -10 -6 -12 -3 -8
13 9 32 -11 27 -53 -13 -33 -34 -38 -35 -64 -23 l-27 12 7 81 c4 44 10 81 15
83 19 7 60 52 60 67 0 8 14 34 30 57 19 25 30 53 30 73 0 32 13 45 46 45 8 0
20 5 27 11 7 6 36 24 65 40 43 25 52 34 47 50 -5 16 0 23 24 32 24 9 29 16 25
32 -7 28 31 75 61 75 21 0 23 -4 20 -32z m6257 -138 l166 -135 79 -140 c44
-77 95 -178 113 -225 18 -47 36 -96 41 -109 9 -24 9 -24 -28 5 -21 15 -105 82
-188 148 -82 66 -151 120 -153 121 -1 1 -25 64 -52 139 -28 75 -75 182 -105
237 -30 55 -50 99 -46 97 5 -2 83 -64 173 -138z m-7146 68 c-18 -103 -47 -357
-59 -511 -8 -97 -16 -179 -18 -181 -5 -4 -813 -163 -817 -161 -1 1 7 92 18
201 24 244 70 504 91 515 8 5 158 38 334 75 176 37 345 73 375 79 83 19 83 19
76 -17z m-2086 -158 c-28 -72 -67 -198 -86 -278 -20 -81 -41 -155 -47 -165
-11 -16 -497 -291 -503 -284 -10 10 84 310 136 436 l62 150 241 140 c132 77
242 139 244 137 2 -2 -19 -63 -47 -136z m6937 75 l202 -48 30 -69 c25 -56 37
-70 66 -82 30 -13 35 -20 35 -49 0 -30 -8 -40 -59 -80 -32 -25 -70 -52 -85
-58 -30 -14 -44 -52 -27 -73 6 -8 8 -27 4 -46 l-6 -33 55 6 c33 3 60 1 66 -5
18 -18 39 -1 46 36 8 43 33 53 78 30 18 -9 46 -17 62 -16 16 0 44 -5 62 -13
30 -12 31 -15 24 -54 -9 -52 -23 -68 -71 -81 -25 -7 -37 -15 -33 -22 4 -7 7
-32 6 -57 -3 -77 13 -83 42 -18 14 31 31 58 38 58 7 1 24 2 37 3 18 1 27 8 32
26 4 18 8 21 12 10 9 -24 17 -210 9 -210 -15 0 -802 177 -806 181 -3 3 -10
101 -16 219 -9 192 -18 298 -35 454 -5 43 -4 48 12 44 10 -3 109 -26 220 -53z
m2058 -190 c127 -76 234 -141 238 -145 20 -17 118 -310 147 -439 18 -78 31
-143 29 -145 -2 -2 -116 61 -254 139 l-250 144 -31 153 c-25 125 -83 329 -120
422 -4 11 -3 17 2 14 5 -2 113 -67 239 -143z m-1655 95 c80 -18 148 -36 152
-39 8 -7 58 -358 58 -407 0 -18 -7 -40 -16 -48 -8 -9 -16 -25 -17 -36 -1 -12
-8 -20 -19 -20 -16 0 -16 2 1 33 10 17 21 51 24 74 l5 42 -55 21 c-30 11 -59
18 -64 15 -5 -4 -25 -1 -44 6 -25 10 -35 19 -35 35 0 26 -64 78 -86 70 -22 -9
-13 -49 14 -61 27 -12 28 -21 2 -28 -15 -4 -20 -14 -20 -39 l0 -33 -56 0 c-55
0 -55 0 -50 27 3 15 1 30 -4 33 -19 12 -9 30 31 55 23 14 52 34 64 45 13 11
34 27 47 36 19 13 23 25 23 65 0 47 -2 50 -39 69 -31 16 -45 33 -63 74 -15 35
-19 52 -11 49 7 -3 78 -20 158 -38z m-6082 18 c-3 -7 -20 -104 -38 -215 -30
-181 -36 -201 -49 -189 -9 7 -22 11 -29 9 -7 -3 -11 1 -10 8 2 8 -7 15 -20 17
-17 3 -25 -2 -29 -17 -7 -27 -20 -27 -29 2 -4 12 -12 25 -18 29 -15 10 -36
-11 -36 -35 0 -11 -7 -25 -17 -32 -18 -13 -10 -35 13 -35 11 0 12 -4 3 -19
-13 -19 -6 -51 9 -51 5 0 24 10 43 23 27 19 34 30 33 54 -1 25 3 32 22 36 13
2 24 0 24 -4 0 -5 14 -9 31 -9 31 0 31 -1 26 -37 -4 -21 -9 -79 -13 -130 -4
-50 -9 -95 -13 -100 -7 -10 -724 -214 -730 -207 -10 10 42 385 74 534 20 91
37 165 38 166 7 5 695 213 706 213 7 1 11 -5 9 -11z m-1974 -104 c-27 -43 -74
-135 -105 -205 -54 -126 -57 -129 -185 -267 -71 -77 -130 -139 -132 -137 -1 1
18 44 42 96 71 151 204 352 318 480 57 64 105 114 107 113 2 -2 -19 -38 -45
-80z m8624 -86 c182 -60 332 -111 332 -114 0 -3 13 -83 30 -177 29 -168 61
-487 49 -487 -3 0 -31 18 -62 40 -30 22 -59 40 -63 40 -4 0 -15 7 -25 16 -16
15 -20 15 -41 0 -21 -15 -68 -22 -68 -10 0 3 5 14 11 25 8 16 7 25 -3 37 -8 9
-25 39 -39 65 -23 45 -47 62 -79 55 -8 -2 -16 6 -18 18 -1 11 -17 29 -35 39
-18 10 -40 27 -50 36 -10 9 -30 19 -45 22 -15 4 -51 24 -80 47 -36 28 -67 42
-97 47 -41 5 -45 9 -49 37 -12 78 -46 354 -46 370 0 13 5 16 23 10 12 -3 172
-56 355 -116z m1692 -70 c91 -101 125 -148 193 -268 69 -121 162 -318 154
-326 -1 -1 -61 61 -132 138 l-130 140 -55 137 c-30 75 -76 173 -102 219 -25
45 -45 82 -43 82 2 0 53 -55 115 -122z m-10135 -46 c-29 -72 -72 -200 -95
-284 -22 -84 -46 -158 -53 -164 -22 -21 -380 -284 -383 -281 -10 10 88 301
143 425 l68 151 185 144 c102 80 186 144 187 143 2 -2 -22 -62 -52 -134z
m1045 83 c0 -3 -16 -78 -35 -168 -19 -89 -44 -243 -55 -341 -11 -99 -22 -182
-24 -184 -6 -5 -618 -242 -627 -242 -13 0 42 352 81 513 l42 175 121 51 c282
118 482 200 490 201 4 0 7 -2 7 -5z m9213 -528 c53 -139 133 -422 117 -415 -3
2 -94 70 -201 152 l-196 148 -33 152 c-18 83 -55 211 -81 284 -27 74 -49 135
-49 137 0 2 87 -65 193 -150 l192 -154 58 -154z m-1138 303 c154 -67 285 -127
291 -133 19 -20 75 -326 93 -506 9 -95 15 -173 13 -175 -6 -7 -335 135 -365
158 -18 13 -57 32 -87 42 -189 61 -176 44 -190 234 -7 85 -25 232 -41 325 -35
203 -34 198 -11 186 9 -5 143 -64 297 -131z m-3730 38 c3 -3 3 -191 -1 -418
l-7 -413 -476 8 c-262 4 -477 8 -478 9 -4 4 17 810 21 821 4 11 930 4 941 -7z
m-968 -10 c-3 -13 -9 -199 -13 -414 l-7 -392 -91 -6 c-83 -6 -612 -32 -780
-38 l-69 -3 1 175 c1 96 7 282 14 413 11 228 12 238 32 242 27 5 725 42 835
44 82 1 83 1 78 -21z m1532 -28 c212 -17 387 -33 390 -35 9 -9 14 -825 5 -825
-50 2 -936 69 -937 72 -1 1 -1 189 1 417 l3 414 77 -6 c42 -4 250 -20 461 -37z
m-4375 -37 c-29 -21 -39 -15 -13 10 13 12 26 18 28 13 2 -5 -4 -15 -15 -23z
m1881 -25 c-8 -88 -25 -521 -25 -655 l0 -113 -30 -1 c-16 -1 -35 -2 -42 -3 -7
-1 -20 19 -29 43 -9 25 -27 53 -40 63 -51 40 -72 64 -89 103 -22 51 -88 111
-155 141 -64 28 -70 36 -46 58 20 18 18 48 -5 67 -8 6 -14 22 -14 35 0 12 -4
26 -10 29 -5 3 -10 21 -10 38 0 26 10 42 48 78 26 25 69 61 97 80 27 19 56 42
65 51 14 15 167 43 263 47 l29 1 -7 -62z m3370 -39 c231 -33 424 -64 428 -68
4 -4 11 -188 14 -409 5 -342 4 -402 -8 -402 -15 0 -804 106 -856 115 l-32 6 0
413 c0 383 1 414 17 410 9 -2 206 -31 437 -65z m-6435 57 c0 -3 -18 -76 -39
-163 -21 -87 -49 -237 -61 -333 -12 -96 -24 -178 -26 -182 -6 -9 -515 -271
-519 -266 -2 1 7 75 20 164 23 158 95 462 118 497 7 10 120 78 252 151 232
129 255 141 255 132z m2714 -24 c-123 -81 -190 -173 -164 -221 5 -11 10 -28
10 -39 0 -11 9 -31 20 -44 l19 -25 -24 -23 c-31 -29 -23 -41 59 -82 69 -34
156 -113 156 -141 0 -10 26 -44 57 -75 32 -31 63 -71 69 -88 14 -40 52 -32
-376 -79 -173 -19 -335 -37 -359 -41 l-44 -6 7 249 c8 279 28 558 40 570 7 8
468 69 536 72 l35 1 -41 -28z m5073 -5 c7 -2 20 -10 30 -18 28 -24 102 -69
111 -69 5 0 35 -17 66 -37 45 -30 56 -43 56 -64 0 -26 2 -27 38 -22 34 5 39 2
50 -21 15 -33 15 -39 2 -31 -24 15 -7 -17 20 -37 20 -15 27 -25 20 -32 -5 -5
-10 -20 -10 -33 0 -13 -3 -23 -6 -23 -7 0 -427 130 -430 133 -1 1 -5 62 -8
136 l-7 134 28 -7 c15 -3 33 -8 40 -9z m-8608 -109 c-28 -62 -71 -186 -97
-275 l-47 -161 -143 -146 c-79 -81 -140 -137 -137 -125 4 12 20 66 35 120 16
55 61 172 101 260 l72 160 130 139 c71 77 131 140 133 140 2 0 -20 -51 -47
-112z m2971 50 c0 -13 -7 -104 -15 -203 -8 -99 -15 -236 -16 -305 0 -69 -4
-163 -7 -209 l-7 -85 -400 -73 c-220 -40 -406 -73 -414 -73 -12 0 -13 35 -7
224 7 200 36 570 47 580 3 3 768 158 812 165 4 0 7 -9 7 -21z m7163 -162 l252
-145 38 -174 c37 -168 77 -470 65 -483 -11 -10 -518 267 -518 283 0 75 -38
370 -64 501 -19 89 -31 162 -29 162 2 0 118 -65 256 -144z m-1985 29 c206 -46
375 -85 377 -87 20 -20 35 -798 16 -798 -15 0 -806 162 -810 165 -2 2 -4 145
-6 317 -1 172 -6 355 -10 407 l-8 93 34 -7 c19 -4 202 -45 407 -90z m2748
-172 c35 -40 60 -87 106 -200 51 -123 133 -391 123 -401 -1 -1 -67 65 -146
148 l-143 151 -37 152 c-20 84 -47 177 -59 207 -12 30 -33 84 -46 120 l-24 65
91 -95 c49 -52 110 -118 135 -147z m-8776 145 c0 -7 -7 -74 -15 -148 -9 -74
-20 -249 -25 -389 -5 -139 -11 -256 -14 -258 -4 -4 -723 -193 -735 -193 -11 0
10 433 29 600 12 102 23 187 25 189 4 3 710 207 728 210 4 0 7 -5 7 -11z
m8814 -72 c14 -25 26 -51 26 -59 0 -9 4 -17 8 -19 10 -4 92 -151 92 -164 0
-15 -101 148 -122 196 -45 103 -46 118 -4 46z m-10659 12 c-31 -87 -88 -342
-106 -475 -12 -92 -27 -174 -32 -181 -12 -15 -398 -285 -402 -280 -10 12 55
348 94 485 l48 166 199 148 c109 82 200 149 201 149 1 0 0 -6 -2 -12z m8652
-118 c195 -60 357 -111 359 -113 12 -12 34 -413 32 -582 l-3 -201 -330 92
c-181 51 -346 97 -366 103 l-36 11 -7 317 c-3 175 -9 355 -12 401 -4 45 -4 82
0 82 4 0 167 -49 363 -110z m209 7 c28 -12 134 -78 134 -82 0 -1 -62 16 -137
39 l-138 41 50 6 c28 3 53 7 56 7 4 1 20 -4 35 -11z m1480 -148 l199 -151 42
-170 c36 -151 81 -441 71 -467 -3 -8 -364 241 -395 272 -6 7 -19 86 -28 177
-10 97 -32 232 -54 328 -21 89 -37 162 -36 162 2 0 92 -68 201 -151z m-9283
-76 c-12 -104 -22 -231 -22 -283 -1 -52 -4 -145 -8 -207 l-6 -112 -96 -35
c-243 -88 -524 -186 -533 -186 -18 0 0 379 28 583 13 99 25 182 27 183 3 3
621 243 627 244 3 0 -4 -84 -17 -187z m8305 -70 c29 -32 82 -98 117 -148 75
-105 159 -197 196 -212 24 -10 26 -17 32 -89 4 -42 7 -151 7 -241 l0 -164 -22
7 c-13 3 -157 56 -320 117 l-298 111 0 191 c0 104 -7 267 -15 360 -8 94 -15
184 -15 202 l0 32 133 -54 c121 -50 136 -59 185 -112z m1454 47 c73 -117 184
-376 223 -523 14 -50 23 -92 21 -94 -1 -2 -41 54 -88 124 -83 126 -85 131
-122 273 -21 80 -54 183 -73 230 -19 47 -37 92 -40 100 -12 30 14 -6 79 -110z
m-11293 -106 c-22 -78 -53 -218 -68 -319 l-29 -180 -143 -137 c-78 -76 -145
-136 -147 -134 -11 12 45 294 89 446 l51 175 141 145 c78 80 143 145 144 145
2 -1 -16 -64 -38 -141z m10006 27 l140 -57 6 -45 c18 -126 21 -199 8 -199 -20
0 -122 112 -187 205 -31 44 -72 97 -91 118 -18 20 -29 37 -25 37 5 -1 72 -27
149 -59z m-9115 21 c0 -5 -11 -94 -25 -198 -14 -104 -25 -232 -25 -285 0 -53
-3 -137 -6 -186 l-7 -91 -264 -125 -264 -125 7 186 c4 105 18 269 33 376 l26
188 255 133 c140 73 258 134 263 134 4 1 7 -3 7 -7z m10362 -234 l90 -97 43
-168 c38 -148 83 -415 73 -443 -2 -6 -69 56 -150 137 l-147 148 -20 170 c-16
139 -48 298 -88 440 -6 24 69 -47 199 -187z m-6230 -260 c-2 -249 -5 -454 -7
-456 -2 -2 -126 -9 -276 -16 l-274 -12 -35 23 c-20 12 -53 43 -74 69 l-38 46
17 32 c17 31 17 34 -3 77 -12 24 -44 76 -72 114 -28 39 -61 90 -74 115 -14 25
-33 50 -43 56 -12 8 -24 34 -33 70 -7 33 -17 63 -22 69 -14 15 -10 215 5 220
14 5 723 42 847 44 l85 1 -3 -452z m876 445 l113 -6 -6 -391 c-3 -215 -8 -420
-11 -455 l-6 -64 -471 7 c-260 4 -474 9 -476 11 -1 2 0 207 4 454 l8 451 366
0 c201 0 417 -3 479 -7z m646 -36 l429 -32 -2 -220 c0 -121 -4 -325 -7 -452
l-7 -233 -26 0 c-58 1 -903 58 -906 62 -2 2 -1 207 2 456 l6 452 41 -1 c23 0
234 -15 470 -32z m-2484 -82 c0 -43 -4 -75 -10 -75 -5 0 -10 6 -10 13 0 7 -11
41 -24 75 l-25 62 35 0 34 0 0 -75z m6632 -204 c19 -17 48 -380 46 -558 l-3
-182 -217 107 c-174 85 -216 110 -209 121 5 8 15 52 22 97 11 76 10 90 -15
215 -31 148 -41 175 -86 213 -29 24 -32 33 -40 113 -5 49 -10 102 -10 120 l0
31 253 -135 c138 -74 255 -138 259 -142z m-6683 166 l41 -104 0 -344 0 -344
-440 -44 c-242 -24 -444 -41 -448 -37 -9 10 -16 706 -7 810 l6 82 362 41 c199
22 381 41 403 42 l42 1 41 -103z m3429 28 c229 -31 427 -58 440 -61 22 -4 22
-5 21 -207 0 -217 -21 -672 -30 -682 -3 -3 -104 7 -225 21 -120 15 -318 38
-439 53 l-220 26 1 65 c4 358 19 840 26 840 5 0 197 -25 426 -55z m-4311 -465
c0 -247 -2 -450 -4 -450 -3 0 -127 -20 -276 -44 -493 -81 -539 -88 -545 -81
-9 8 -9 862 0 871 6 5 766 149 814 153 7 1 11 -135 11 -449z m5601 235 l22 -5
0 -228 c0 -273 -20 -642 -35 -642 -5 -1 -192 32 -414 72 l-404 73 7 85 c3 47
9 243 12 435 3 193 7 355 9 361 2 8 131 -15 392 -67 213 -43 398 -81 411 -84z
m-9063 3 c-20 -68 -48 -197 -63 -288 l-27 -165 -90 -132 c-49 -72 -91 -131
-92 -129 -10 10 46 273 89 416 49 167 55 181 132 301 45 69 83 125 85 123 2
-1 -13 -58 -34 -126z m669 100 c-35 -222 -46 -332 -51 -493 -3 -104 -9 -199
-14 -211 -6 -16 -281 -202 -398 -269 -38 -22 30 689 69 722 26 22 385 272 391
273 3 0 5 -10 3 -22z m1932 -275 c-3 -126 -2 -322 3 -438 5 -115 9 -211 8
-211 -1 -1 -159 -39 -352 -83 -192 -45 -360 -84 -371 -87 -21 -5 -22 -2 -30
198 -9 225 -6 612 6 643 6 16 45 30 216 73 115 30 272 71 349 92 77 21 149 38
159 39 18 1 19 -7 12 -226z m7975 171 c27 -44 68 -228 69 -307 0 -58 -16 -145
-30 -160 -4 -5 -22 -1 -39 7 l-31 17 0 217 c0 119 -3 227 -6 240 -10 34 12 26
37 -14z m-6115 -61 c13 -8 33 -34 44 -57 11 -22 49 -83 85 -134 66 -95 77
-129 50 -152 -20 -16 -12 -41 26 -81 16 -17 29 -35 29 -40 0 -5 14 -18 31 -28
l31 -19 -167 -7 c-91 -4 -168 -6 -170 -4 -4 4 -8 419 -5 539 2 70 3 73 12 37
6 -21 21 -45 34 -54z m6857 -102 c86 -62 157 -115 157 -119 0 -4 7 -62 16
-127 14 -108 35 -575 25 -575 -2 0 -95 59 -207 131 l-204 132 0 176 c0 107 -8
245 -20 351 -26 235 -29 218 28 178 26 -19 118 -85 205 -147z m626 -251 c34
-131 85 -416 76 -427 -1 -3 -172 236 -186 261 -4 6 -14 74 -23 151 -10 77 -33
204 -52 283 -19 79 -34 148 -34 154 0 6 40 -50 88 -124 l88 -134 43 -164z
m-2490 309 c179 -51 343 -96 364 -102 l37 -9 0 -216 c0 -192 -25 -620 -36
-632 -5 -4 -709 171 -725 181 -6 4 -4 91 6 241 8 130 15 324 15 432 0 108 3
196 6 196 4 0 153 -41 333 -91z m-7623 -331 c0 -161 3 -354 7 -428 l8 -136
-318 -101 c-175 -56 -319 -100 -320 -99 -18 18 -32 689 -17 792 l6 42 311 110
c172 61 315 111 318 111 4 1 6 -131 5 -291z m-1627 75 c-17 -108 -29 -225 -30
-298 -1 -66 -4 -147 -8 -180 l-6 -61 -149 -134 -149 -134 8 170 c4 104 18 238
35 349 l29 180 143 142 c79 78 145 142 149 142 3 1 -7 -79 -22 -176z m10279
-89 l42 -16 0 -63 c0 -54 -4 -68 -26 -94 -14 -17 -31 -31 -38 -31 -21 0 -82
-73 -120 -145 -48 -89 -61 -103 -89 -98 -36 7 -59 -29 -73 -115 -7 -42 -13
-96 -13 -119 -1 -28 -5 -43 -14 -43 -7 0 -78 22 -157 48 l-145 49 3 44 c1 24
9 132 17 239 8 107 15 279 15 381 l0 186 278 -103 c152 -57 296 -111 320 -120z
m1322 -143 c0 -3 9 -76 19 -161 20 -160 38 -520 27 -520 -4 0 -21 14 -39 30
-18 17 -85 76 -149 133 l-117 102 0 180 c-1 114 -8 238 -21 340 -11 88 -20
166 -20 173 0 8 68 -51 150 -129 83 -78 150 -145 150 -148z m-10642 -123 c2
-183 4 -370 5 -416 l2 -83 -242 -104 c-133 -57 -250 -106 -261 -109 -17 -6
-19 5 -30 161 -13 184 -15 395 -6 543 l7 96 256 121 c141 67 258 122 261 122
3 1 7 -149 8 -331z m9420 182 c-13 -16 -26 -29 -30 -29 -5 -1 -8 19 -8 44 l0
46 30 -16 31 -16 -23 -29z m-10683 8 c-19 -52 -48 -304 -54 -464 l-8 -192 -75
-103 c-42 -57 -85 -115 -97 -129 l-22 -25 6 145 c5 134 45 440 65 501 8 25
177 279 185 279 3 0 2 -6 0 -12z m11103 -172 l72 -36 0 -213 c0 -220 -26 -577
-43 -577 -5 0 -123 50 -263 112 -252 111 -254 112 -254 142 0 17 7 103 15 191
8 88 15 229 15 313 l0 154 42 47 42 47 151 -71 c82 -40 183 -89 223 -109z
m-5648 -26 c0 -82 -4 -150 -9 -150 -4 0 -19 8 -32 19 -13 10 -78 40 -144 66
-66 26 -127 53 -135 60 -8 7 -51 31 -95 53 -44 22 -89 49 -99 61 l-19 21 39 1
c21 1 102 5 179 8 77 4 179 8 228 9 l87 2 0 -150z m350 140 c0 -5 -9 -14 -20
-20 -14 -7 -20 -21 -20 -44 0 -35 21 -63 39 -51 6 3 26 -9 46 -27 72 -68 92
-80 130 -72 28 5 35 11 35 29 0 12 -7 28 -15 35 -12 10 -13 15 -4 21 18 10 -7
39 -33 39 -11 0 -47 21 -81 48 l-62 47 180 3 c99 2 236 0 304 -3 l124 -7 -7
-357 c-3 -196 -9 -411 -13 -478 l-6 -123 -322 0 -322 0 -6 133 c-6 120 -26
279 -41 317 -4 9 -22 24 -41 34 -19 11 -62 48 -96 83 -34 35 -70 68 -80 74
-17 9 -19 23 -19 169 l0 160 165 0 c99 0 165 -4 165 -10z m1105 -25 c226 -14
425 -28 444 -31 l34 -5 -7 -227 c-6 -202 -34 -724 -39 -728 -1 -1 -206 10
-456 25 l-453 25 6 301 c3 165 9 382 12 483 6 177 7 182 28 182 11 0 206 -11
431 -25z m-1994 -20 c22 -19 70 -49 107 -66 37 -18 76 -39 87 -49 11 -9 74
-38 139 -64 66 -26 138 -60 160 -75 l40 -28 4 -315 4 -314 -324 -13 c-178 -6
-384 -14 -459 -18 l-136 -6 -6 149 c-4 82 -10 299 -14 482 -6 322 -6 332 13
333 10 1 82 5 159 8 77 4 151 8 164 9 15 1 38 -11 62 -33z m-427 -46 c3 -34 6
-159 7 -278 0 -119 4 -306 8 -416 5 -110 7 -202 5 -204 -3 -3 -66 -10 -142
-17 -488 -45 -725 -65 -727 -62 -6 7 -35 514 -41 719 l-7 227 59 7 c70 8 792
82 815 84 13 1 18 -13 23 -60z m1399 9 c27 -21 55 -38 63 -38 9 0 12 -5 9 -11
-4 -5 1 -19 10 -29 15 -17 16 -20 3 -25 -16 -7 -64 23 -112 68 -16 15 -37 27
-46 27 -16 0 -30 19 -30 40 0 11 31 18 45 11 6 -3 32 -22 58 -43z m6145 -100
c45 -65 86 -128 92 -140 20 -50 50 -345 50 -497 l0 -154 -100 131 -100 131 0
175 c0 150 -9 269 -35 451 -7 48 -10 51 93 -97z m-11331 -75 c-5 -138 -2 -260
8 -402 8 -112 14 -205 13 -206 -12 -10 -411 -235 -413 -233 -1 2 -8 68 -15
148 -13 149 -14 540 -2 597 6 28 30 47 207 161 110 72 202 131 204 131 2 1 1
-88 -2 -196z m7160 144 c238 -29 435 -56 439 -60 9 -9 -13 -427 -37 -682 -10
-115 -19 -221 -19 -234 0 -22 -2 -23 -52 -17 -29 3 -224 24 -432 46 -209 22
-382 43 -385 45 -2 3 3 159 13 347 9 189 19 403 22 476 3 72 9 132 13 132 3 0
200 -24 438 -53z m2744 -360 c-10 -120 -21 -221 -24 -224 -3 -2 -71 17 -151
43 -165 55 -156 44 -136 159 5 28 13 70 17 95 5 29 13 45 23 46 50 2 100 55
140 148 19 46 84 116 106 116 6 0 18 7 25 17 22 26 22 -147 0 -400z m-7032 98
c1 -88 8 -257 16 -375 8 -118 16 -240 17 -270 l3 -54 -400 -57 c-220 -32 -402
-56 -404 -53 -14 14 -55 545 -63 836 l-3 88 50 9 c28 6 212 36 410 68 l360 58
7 -45 c3 -25 7 -117 7 -205z m5190 126 c211 -39 385 -72 388 -75 16 -15 -63
-895 -81 -914 -7 -6 -789 118 -797 127 -4 3 3 119 16 256 12 138 26 327 29
420 4 94 9 191 12 217 5 43 8 47 27 43 12 -3 195 -36 406 -74z m2667 -65 l181
-117 7 -82 c11 -142 7 -274 -15 -481 -11 -111 -22 -202 -23 -203 -2 -2 -403
230 -411 239 -3 3 4 97 15 209 12 124 20 278 20 393 l0 188 23 -14 c12 -8 103
-67 203 -132z m-8707 -236 c0 -58 13 -226 27 -373 14 -148 24 -270 22 -271 -7
-5 -720 -148 -722 -144 -2 1 -15 104 -30 228 -24 203 -45 493 -46 625 l0 51
208 47 c114 27 279 65 367 86 l160 37 6 -90 c4 -50 7 -138 8 -196z m-2974 123
c-9 -48 -20 -172 -25 -274 l-7 -186 -43 -104 c-23 -57 -44 -106 -47 -109 -13
-13 12 265 38 425 27 163 86 378 96 348 2 -6 -3 -51 -12 -100z m9809 6 l364
-91 -4 -36 c-2 -21 -11 -125 -19 -232 -11 -150 -70 -618 -78 -626 -4 -4 -709
155 -715 160 -3 4 6 111 21 239 15 127 31 313 37 412 11 191 18 265 26 265 2
0 168 -41 368 -91z m-4023 28 c26 -29 69 -68 97 -87 28 -19 54 -41 57 -48 2
-7 10 -54 16 -105 6 -51 15 -109 20 -129 5 -20 7 -73 3 -118 l-7 -81 -121 3
-121 3 -3 308 c-1 169 1 307 5 307 5 0 29 -24 54 -53z m-5276 -159 c-5 -145
-2 -254 9 -383 8 -99 14 -180 13 -181 -1 -1 -69 -57 -152 -123 l-150 -122 -12
128 c-13 137 -16 458 -5 561 l7 63 145 129 c80 71 146 130 148 130 2 0 0 -91
-3 -202z m11956 36 c35 -87 43 -122 65 -286 17 -131 24 -222 22 -304 l-3 -117
-47 109 -48 110 0 155 c0 134 -12 272 -36 409 -9 51 1 35 47 -76z m-10257
-184 c4 -91 20 -272 37 -403 16 -131 29 -240 29 -242 0 -4 0 -4 -363 -105
-142 -40 -260 -70 -262 -68 -14 13 -68 450 -80 642 -8 126 -14 230 -13 231 2
0 145 46 318 101 l315 100 6 -46 c3 -25 9 -119 13 -210z m9864 85 l132 -118 0
-186 c0 -160 -12 -334 -35 -498 l-6 -42 -152 121 c-84 66 -153 121 -153 122
-1 0 6 82 17 181 11 110 19 257 19 379 l0 199 23 -19 c12 -11 82 -74 155 -139z
m-1714 42 l148 -52 2 -59 c2 -34 -5 -86 -16 -125 -10 -36 -24 -95 -30 -131 -7
-41 -19 -74 -33 -90 -27 -30 -41 -74 -50 -153 -5 -43 -14 -66 -34 -90 -16 -18
-40 -54 -54 -82 -14 -27 -36 -60 -49 -73 l-25 -22 -59 18 c-47 14 -59 22 -57
38 1 10 16 116 32 234 25 172 61 548 61 625 0 8 3 15 8 14 4 0 74 -24 156 -52z
m472 -160 c2 -1 -6 -103 -16 -225 -16 -180 -56 -468 -86 -613 l-5 -27 -167 49
c-92 27 -199 59 -238 70 l-71 21 25 27 c13 14 35 47 47 72 13 25 31 51 40 59
26 22 35 46 50 137 11 71 19 92 43 117 23 24 31 43 35 88 3 32 10 73 16 93 6
19 16 50 21 68 6 18 10 63 10 99 l0 67 146 -49 c81 -27 148 -51 150 -53z
m-10651 -99 c-5 -135 -3 -230 9 -362 9 -98 12 -184 8 -190 -30 -40 -186 -226
-188 -224 -10 11 -26 295 -25 433 3 263 2 259 107 402 49 67 91 122 92 123 2
0 1 -82 -3 -182z m1364 -44 c8 -125 27 -310 46 -436 22 -153 29 -221 21 -224
-6 -2 -120 -44 -252 -94 -133 -49 -246 -90 -251 -90 -16 0 -82 447 -94 645
-10 161 -10 190 2 198 22 14 493 215 505 216 7 1 15 -74 23 -215z m9624 -1
c156 -69 217 -100 217 -112 0 -82 -47 -463 -75 -611 -19 -102 -35 -188 -35
-192 0 -15 -27 -7 -272 88 -206 80 -248 100 -248 116 0 11 16 113 34 226 19
114 43 300 52 413 l18 207 45 -20 c25 -11 144 -62 264 -115z m1168 -24 l87
-114 5 -179 c4 -140 1 -215 -14 -344 -11 -91 -21 -167 -23 -169 -2 -2 -47 47
-100 109 -110 129 -104 108 -81 313 8 72 15 220 15 330 1 159 3 197 13 184 7
-8 51 -67 98 -130z m-11357 -51 c3 -29 11 -123 16 -208 6 -85 27 -249 46 -364
19 -115 33 -210 32 -211 -2 -2 -94 -48 -205 -104 -194 -96 -203 -100 -208 -78
-53 237 -111 750 -89 783 8 13 381 233 396 234 4 0 9 -24 12 -52z m-1019 -180
c-5 -115 -2 -213 9 -333 l16 -170 -47 -103 c-25 -56 -48 -100 -50 -98 -3 2
-10 64 -17 138 -9 92 -10 192 -5 323 l8 190 43 107 c24 59 44 108 46 108 2 0
0 -73 -3 -162z m5747 -218 c2 -203 3 -427 3 -497 l0 -128 -185 -6 c-102 -3
-298 -10 -436 -14 l-250 -8 -18 294 c-10 162 -21 383 -24 491 l-7 196 65 6
c36 3 216 11 400 16 184 6 342 13 350 14 8 2 34 4 58 5 l42 1 2 -370z m283
341 c3 -16 -1 -69 -9 -117 -9 -49 -16 -104 -16 -123 0 -21 -8 -43 -20 -56 -23
-24 -23 -19 -17 -240 3 -143 2 -163 -15 -190 -15 -25 -18 -43 -13 -105 3 -41
2 -88 -3 -105 -9 -30 -9 -30 -82 -30 -40 0 -74 5 -75 10 -2 6 -6 229 -8 498
l-5 487 128 0 128 0 7 -29z m663 14 c4 -4 -15 -713 -24 -872 l-6 -113 -348 0
-348 0 0 113 c0 78 4 116 13 127 15 17 25 336 12 358 -11 16 1 54 22 68 15 12
17 24 37 255 l7 76 316 -5 c174 -2 318 -6 319 -7z m452 -20 c146 -8 316 -18
378 -21 l113 -7 -5 -61 c-3 -34 -11 -146 -17 -251 -13 -238 -47 -657 -54 -664
-6 -5 -727 26 -814 36 l-54 6 6 196 c4 108 10 315 13 461 3 146 7 280 10 298
l5 33 77 -6 c42 -3 196 -12 342 -20z m4573 -125 c172 -99 156 -60 128 -330
-19 -184 -89 -550 -105 -550 -7 0 -393 195 -403 204 -2 1 15 95 36 208 22 114
47 289 56 390 9 100 18 193 21 206 l5 23 57 -33 c32 -18 124 -71 205 -118z
m-6909 -47 c3 -93 15 -312 25 -488 11 -176 17 -323 13 -326 -6 -6 -824 -71
-828 -66 -7 7 -58 515 -72 720 l-17 247 30 5 c16 3 138 14 270 26 132 11 301
26 375 33 74 7 149 14 166 15 l32 1 6 -167z m3334 91 c199 -21 367 -41 374
-45 8 -5 7 -59 -6 -211 -18 -211 -81 -737 -90 -745 -5 -6 -818 67 -825 74 -3
2 5 128 17 281 12 152 27 367 33 477 6 110 12 205 14 211 2 7 22 9 62 3 32 -4
221 -24 421 -45z m4406 -93 l46 -104 0 -210 c0 -186 -11 -355 -27 -427 -4 -21
-13 -8 -58 82 l-54 108 19 162 c12 99 20 230 20 332 0 93 2 167 4 165 2 -2 24
-51 50 -108z m-8644 77 c1 -65 45 -596 64 -753 12 -110 22 -202 20 -204 -3 -3
-767 -99 -771 -97 -16 12 -134 941 -121 951 4 2 766 112 791 114 9 0 17 -5 17
-11z m5060 -93 c195 -31 364 -59 375 -63 l21 -7 -27 -225 c-14 -124 -34 -271
-44 -328 -17 -102 -18 -104 -64 -147 -51 -47 -72 -100 -73 -180 l-1 -47 -46 6
c-25 4 -109 15 -186 26 -77 11 -212 29 -300 41 -88 12 -162 23 -164 25 -3 3
10 120 27 262 26 201 71 648 72 695 0 5 12 6 28 3 15 -3 187 -31 382 -61z
m-8374 -146 c9 -115 29 -270 49 -380 19 -102 35 -195 35 -206 0 -16 -36 -47
-146 -123 -80 -56 -147 -100 -149 -98 -2 2 -19 84 -39 182 -24 118 -42 248
-53 382 l-16 203 24 20 c13 10 80 64 149 119 69 55 126 99 128 97 1 -1 9 -89
18 -196z m2484 98 c0 -75 43 -448 77 -670 20 -130 33 -240 30 -244 -7 -6 -648
-123 -677 -123 -12 0 -26 55 -62 248 -47 245 -104 659 -93 671 6 5 682 148
713 150 7 1 12 -12 12 -32z m8993 -131 c121 -97 135 -111 132 -135 -3 -14 -12
-98 -21 -186 -12 -125 -86 -528 -99 -543 -4 -5 -297 200 -301 212 -2 6 13 97
35 201 22 105 47 262 55 350 9 88 19 177 22 197 7 45 -12 55 177 -96z m-2311
29 c188 -42 344 -78 346 -80 3 -3 -3 -63 -13 -135 l-18 -130 -43 0 c-25 0 -49
6 -58 15 -11 11 -25 14 -50 10 -20 -4 -36 -2 -40 4 -4 6 -20 11 -35 11 -15 0
-32 5 -39 12 -9 9 -21 4 -51 -20 -22 -18 -46 -32 -54 -32 -7 0 -24 -11 -37
-25 -19 -20 -30 -24 -53 -19 -30 6 -36 5 -127 -40 -54 -26 -97 -54 -152 -96
-16 -12 -28 -20 -28 -17 0 2 5 29 10 58 9 45 70 528 70 552 0 13 23 8 372 -68z
m-7409 -253 c15 -125 48 -330 72 -456 25 -126 44 -230 42 -232 -4 -5 -581
-144 -594 -144 -25 0 -183 815 -171 879 2 10 93 40 293 97 160 45 299 82 310
83 19 1 22 -14 48 -227z m-2084 -2 c8 -107 26 -237 52 -369 l40 -204 -97 -98
c-54 -54 -100 -96 -102 -94 -2 2 -20 77 -38 167 -32 153 -70 482 -62 542 4 31
181 248 189 232 3 -6 11 -85 18 -176z m9921 156 c29 -9 44 -19 41 -27 -2 -8
-8 -32 -14 -54 -5 -22 -11 -46 -13 -53 -3 -11 -84 -53 -91 -48 -4 3 26 196 30
196 1 0 22 -7 47 -14z m339 -99 c123 -37 226 -69 229 -72 19 -18 -150 -837
-179 -869 -6 -7 -584 128 -598 140 -2 2 17 102 43 221 44 208 78 399 78 435
-1 22 25 43 70 57 45 15 53 25 62 76 10 53 33 88 54 82 10 -3 118 -34 241 -70z
m1805 -81 c73 -86 96 -121 96 -142 0 -87 -42 -381 -75 -524 -21 -91 -39 -167
-42 -169 -5 -6 -181 168 -194 191 -6 12 3 74 31 204 30 138 80 485 80 551 0
10 17 -8 104 -111z m-10659 52 c2 -13 16 -106 30 -208 15 -102 48 -282 75
-400 27 -118 51 -225 52 -238 3 -22 -10 -28 -225 -97 -126 -40 -239 -76 -251
-79 -22 -5 -25 1 -79 212 -49 188 -133 629 -123 640 5 4 499 191 508 191 4 1
10 -9 13 -21z m9394 -157 c128 -49 235 -92 237 -94 2 -2 -14 -101 -36 -219
-41 -215 -150 -624 -166 -622 -12 2 -488 157 -493 161 -2 1 22 105 53 230 31
125 70 311 86 413 42 259 37 241 63 230 12 -4 127 -49 256 -99z m-1187 43 c6
-4 26 -9 42 -10 43 -4 138 -22 143 -28 3 -2 0 -37 -6 -78 -14 -89 -99 -497
-109 -519 -6 -14 -46 -9 -347 49 -187 35 -342 66 -344 68 -5 5 30 222 40 250
9 25 77 94 93 94 6 0 31 16 54 35 45 36 79 51 89 41 4 -3 14 1 24 10 13 12 28
15 49 10 23 -4 39 0 63 17 18 12 34 25 35 30 2 4 21 7 42 7 32 0 37 3 33 18
-4 16 1 18 41 16 25 -1 51 -6 58 -10z m-9833 -171 c9 -113 26 -229 52 -354
l38 -187 -50 -93 c-28 -52 -52 -95 -53 -96 -9 -9 -69 332 -81 458 -22 224 -21
230 27 341 24 54 45 98 48 98 3 0 12 -75 19 -167z m1111 -105 c19 -114 59
-300 91 -422 32 -121 56 -223 54 -226 -2 -4 -26 -15 -52 -25 -26 -9 -70 -28
-98 -40 -147 -68 -239 -105 -245 -98 -4 5 -32 96 -63 203 -49 169 -127 535
-127 595 0 16 38 39 193 117 105 53 197 97 203 97 7 1 24 -79 44 -201z m11353
77 c31 -63 47 -108 47 -133 0 -131 -82 -615 -110 -645 -4 -4 -31 33 -60 84
l-53 92 41 186 c24 107 49 255 59 349 10 89 20 162 23 162 3 0 27 -43 53 -95z
m-964 -56 c108 -56 197 -102 198 -103 1 0 -18 -94 -41 -208 -38 -179 -147
-569 -166 -591 -5 -6 -381 150 -396 166 -3 3 22 103 55 224 49 173 131 554
131 603 0 19 26 9 219 -91z m-10818 -246 c22 -119 62 -289 93 -398 31 -104 56
-194 56 -200 0 -17 -290 -186 -296 -172 -2 7 -29 91 -59 187 -53 167 -143 575
-130 589 14 15 290 207 294 205 2 -2 21 -97 42 -211z m8539 214 c0 -2 -9 -52
-20 -112 -11 -60 -20 -110 -20 -112 0 -2 -11 -3 -25 -3 -24 0 -25 3 -24 56 2
56 15 94 51 147 16 22 38 36 38 24z m-3506 -319 c3 -167 9 -387 12 -490 l7
-186 -74 -6 c-115 -9 -733 -23 -740 -17 -15 13 -89 954 -77 967 5 4 593 28
794 33 l71 1 7 -302z m146 259 c-3 -23 -9 -47 -13 -53 -3 -6 -11 -42 -17 -80
-6 -38 -23 -92 -37 -120 -26 -51 -26 -53 -10 -93 24 -59 22 -113 -4 -137 -20
-18 -21 -26 -15 -119 5 -93 14 -169 32 -287 6 -44 5 -48 -14 -48 -15 0 -21 8
-26 33 -3 17 -8 228 -11 467 -4 239 -8 445 -11 458 -4 21 -2 22 64 22 l69 0
-7 -43z m610 36 l153 -6 -7 -141 c-3 -78 -11 -297 -18 -488 l-12 -348 -186 0
c-103 0 -274 3 -381 7 l-195 6 -22 191 c-23 189 -22 233 7 250 20 13 23 69 5
136 -17 67 -17 68 4 97 11 16 26 60 32 99 6 38 17 83 23 99 6 17 10 38 9 47
-2 10 2 26 8 38 10 19 20 20 219 20 114 0 277 -3 361 -7z m644 -23 c220 -11
400 -21 402 -23 7 -9 -82 -956 -92 -966 -4 -4 -807 28 -812 33 -1 2 2 104 7
227 6 123 13 328 16 454 3 127 8 245 11 263 6 39 -45 38 468 12z m-2300 -67
c3 -38 11 -144 17 -238 6 -93 21 -282 34 -420 12 -137 22 -251 21 -252 0 0
-156 -11 -346 -22 -190 -12 -365 -24 -390 -27 l-46 -5 -37 238 c-33 215 -87
650 -87 707 0 22 0 22 393 53 215 17 402 31 413 32 20 1 23 -5 28 -66z m3151
7 c193 -17 364 -33 381 -36 l31 -4 -32 -248 c-18 -136 -49 -349 -70 -474 l-38
-228 -26 0 c-38 0 -713 50 -737 55 l-20 4 23 218 c22 216 63 686 63 731 0 22
3 23 38 18 20 -3 195 -19 387 -36z m3923 -93 c79 -54 141 -104 139 -110 -2 -7
-21 -91 -41 -187 -36 -168 -160 -574 -174 -567 -66 34 -292 173 -292 180 0 6
25 92 56 191 48 156 82 292 134 549 8 39 15 55 23 50 7 -3 76 -51 155 -106z
m652 -232 c-12 -99 -35 -243 -53 -320 l-32 -140 -18 78 -18 78 40 167 c31 133
61 319 72 454 1 7 7 -21 15 -62 13 -68 12 -93 -6 -255z m-8585 273 c3 -24 17
-142 30 -263 14 -121 40 -317 59 -435 19 -118 33 -216 32 -217 -2 -2 -165 -20
-365 -41 -360 -38 -362 -38 -366 -17 -68 290 -178 905 -164 919 5 5 686 93
736 95 30 1 32 -1 38 -41z m4833 -42 c172 -24 314 -45 316 -47 10 -11 -36
-181 -54 -199 -11 -11 -20 -24 -20 -30 0 -5 -7 -10 -16 -10 -36 0 -154 -127
-197 -212 -21 -42 -24 -44 -35 -27 -10 16 -16 17 -38 7 -28 -13 -44 -1 -44 35
0 32 -24 12 -35 -29 -5 -21 -20 -55 -33 -74 -12 -19 -22 -39 -22 -44 0 -13
-33 -35 -53 -36 -10 0 -20 -8 -24 -17 -3 -10 -13 -26 -21 -35 -9 -11 -13 -28
-9 -47 5 -21 1 -33 -14 -47 -11 -10 -29 -38 -39 -62 l-20 -45 -82 7 c-45 4
-83 8 -84 9 -1 1 15 108 37 237 31 189 99 674 99 712 0 4 17 6 38 3 20 -4 178
-25 350 -49z m-5638 -21 c0 -38 82 -508 121 -688 28 -131 49 -240 47 -243 -5
-4 -498 -79 -595 -90 -35 -3 -63 -3 -63 0 0 4 -25 100 -56 214 -51 190 -157
682 -148 691 4 5 642 119 672 120 12 1 22 -1 22 -4z m-2796 -202 c21 -104 64
-274 97 -380 32 -105 59 -195 59 -201 0 -9 -183 -172 -193 -172 -14 0 -130
399 -163 557 l-37 182 94 100 c52 56 97 101 100 101 3 0 23 -84 43 -187z
m8781 -65 c-33 -195 -137 -684 -148 -695 -5 -4 -519 56 -525 61 -2 2 3 20 12
39 13 33 97 106 122 107 38 1 191 167 242 265 42 79 160 205 192 205 13 0 24
10 30 25 5 14 14 25 19 25 6 0 18 36 27 81 12 54 23 83 35 90 12 6 16 16 12
27 -5 13 -3 15 7 5 11 -10 6 -53 -25 -235z m426 162 c174 -33 319 -60 323 -60
12 0 6 -33 -44 -264 -63 -289 -163 -641 -182 -640 -7 0 -154 23 -325 50 -236
37 -313 52 -313 63 0 7 22 111 50 230 27 119 65 311 85 426 49 290 43 266 68
260 12 -3 164 -32 338 -65z m2654 -385 c-24 -104 -71 -270 -105 -367 l-62
-178 -75 63 c-41 34 -87 73 -104 87 l-29 25 60 180 c34 99 81 270 105 380 25
110 45 202 45 205 0 3 47 -42 104 -100 l104 -105 -43 -190z m-9741 128 c26
-131 74 -335 106 -453 32 -118 58 -216 56 -217 -4 -4 -546 -113 -561 -113 -18
0 -143 405 -200 650 -29 124 -51 227 -49 229 6 6 556 139 580 140 20 1 25 -14
68 -236z m7749 113 c158 -40 290 -76 294 -79 17 -18 -215 -825 -247 -860 -8
-9 -549 99 -563 113 -4 4 20 103 53 221 34 118 81 309 106 424 54 254 55 255
63 255 3 0 136 -33 294 -74z m-10089 -176 c21 -96 64 -260 97 -363 33 -103 59
-191 57 -195 -9 -23 -94 -151 -100 -152 -15 -1 -115 327 -154 505 l-41 190 51
97 c28 53 51 96 52 95 1 -1 18 -81 38 -177z m1666 144 c0 -38 125 -516 174
-669 42 -130 61 -202 54 -206 -8 -5 -433 -118 -461 -123 -27 -4 -289 823 -268
845 3 4 101 37 216 73 116 37 219 71 230 76 23 10 55 13 55 4z m9005 -135
c138 -45 245 -85 245 -92 0 -7 -25 -100 -55 -207 -46 -167 -195 -589 -215
-613 -6 -7 -464 114 -476 126 -3 3 28 108 70 234 41 125 94 302 116 393 55
223 60 240 65 240 3 0 115 -36 250 -81z m1533 -15 l54 -95 -42 -177 c-35 -146
-132 -451 -159 -499 -4 -8 -27 15 -64 68 l-58 81 70 206 c39 114 85 276 103
360 18 83 35 152 38 152 3 0 29 -43 58 -96z m-11068 -18 c0 -36 130 -472 187
-629 42 -114 74 -209 72 -212 -13 -12 -375 -133 -380 -127 -23 23 -167 408
-218 583 -34 113 -61 210 -61 215 0 14 269 126 286 120 7 -3 17 1 21 8 14 23
93 58 93 42z m-1255 -211 c15 -77 56 -223 90 -325 59 -180 61 -186 50 -235 -7
-28 -14 -57 -17 -65 -2 -7 -26 49 -52 126 -52 149 -124 463 -121 529 1 22 2
60 3 85 3 69 16 37 47 -115z m11448 -12 c9 -3 17 -9 17 -13 0 -4 -27 -97 -61
-206 -53 -173 -206 -567 -227 -585 -9 -8 -375 124 -379 137 -2 6 30 98 70 205
41 107 95 268 121 359 26 91 54 188 62 216 l15 52 182 -80 c100 -44 190 -82
200 -85z m-2771 70 c-22 -18 -43 -44 -46 -57 -6 -26 -65 -66 -96 -66 -17 0
-18 2 -5 28 8 15 25 29 37 32 22 6 69 63 88 107 12 29 54 35 58 9 3 -13 -10
-31 -36 -53z m3733 -55 l16 -73 -45 -185 c-39 -160 -125 -429 -146 -453 -3 -4
-14 24 -24 62 l-18 69 61 169 c47 132 131 438 131 477 0 3 2 6 4 6 3 0 12 -33
21 -72z m-11522 -172 c34 -118 90 -282 133 -387 41 -101 77 -192 80 -204 4
-17 -13 -29 -132 -85 -75 -36 -140 -66 -144 -68 -14 -6 -173 384 -230 565 -33
105 -60 196 -60 202 0 8 274 179 290 180 3 1 31 -91 63 -203z m7797 189 c-7
-9 -15 -13 -19 -10 -3 3 1 10 9 15 21 14 24 12 10 -5z m2980 -155 c69 -40 126
-74 127 -75 10 -6 -150 -445 -212 -585 -43 -96 -79 -176 -80 -178 -3 -3 -295
137 -295 141 0 3 36 91 80 198 44 106 108 281 141 388 34 108 63 200 66 204 3
4 15 2 26 -6 12 -8 78 -47 147 -87z m-5948 -82 c5 -149 -5 -212 -44 -290 -19
-40 -40 -99 -57 -164 -8 -28 -18 -43 -31 -47 -18 -5 -20 -10 -14 -48 6 -36 5
-41 -9 -36 -39 15 -64 -84 -35 -136 7 -12 13 -42 14 -67 1 -25 5 -55 9 -67 l7
-22 -229 -2 c-125 -1 -250 -3 -278 -3 l-50 -1 -26 215 c-31 249 -74 708 -68
715 4 4 485 20 707 23 l102 2 2 -72z m40 25 c-5 -76 -10 -83 -11 -15 0 34 2
62 7 62 4 0 6 -21 4 -47z m805 -135 c-4 -101 -12 -312 -19 -470 l-12 -288
-377 0 -377 0 -6 83 c-12 161 -23 638 -16 678 4 22 13 46 19 52 6 6 11 34 11
62 0 29 3 55 7 58 3 4 180 7 391 7 l385 0 -6 -182z m-5993 -21 c34 -111 95
-274 143 -386 46 -107 80 -197 76 -201 -39 -33 -185 -131 -190 -127 -3 4 -39
79 -81 169 -69 150 -203 522 -201 558 1 13 175 178 189 179 3 1 32 -86 64
-192z m6436 183 c381 -15 409 -18 404 -38 -2 -9 -15 -125 -29 -257 -29 -284
-73 -626 -81 -634 -3 -3 -57 -6 -119 -6 -106 0 -115 2 -139 24 l-25 24 -6 -26
-7 -26 -211 5 c-117 3 -218 8 -226 10 -11 3 -12 25 -7 107 5 84 36 773 36 815
0 15 61 16 410 2z m-2130 -7 c0 -36 55 -570 75 -727 13 -110 24 -201 22 -202
-6 -6 -709 -38 -713 -32 -18 29 -173 903 -162 913 2 1 172 14 378 28 206 13
381 25 388 26 6 0 12 -2 12 -6z m2954 -42 c208 -17 380 -32 382 -34 3 -2 -3
-51 -13 -108 -14 -84 -21 -108 -41 -126 -31 -29 -79 -38 -128 -24 -22 6 -58
11 -80 11 -44 0 -102 20 -144 50 -14 10 -46 21 -71 25 -39 6 -49 12 -70 46
-28 47 -43 49 -62 10 -22 -44 -10 -78 38 -115 52 -39 95 -88 95 -108 0 -8 -7
-23 -15 -34 -30 -39 -14 -94 34 -119 27 -13 28 -18 21 -50 -7 -32 -83 -135
-99 -135 -4 0 -20 -22 -35 -50 -24 -44 -32 -51 -79 -64 -180 -51 -227 -57
-227 -28 0 10 11 104 25 208 19 144 75 644 75 670 0 5 -29 7 394 -25z m-3723
-256 c21 -132 58 -338 82 -457 43 -214 44 -218 23 -218 -12 0 -149 -11 -306
-25 -157 -14 -298 -25 -315 -25 l-30 0 -63 228 c-65 236 -160 658 -150 667 8
9 626 74 678 72 l44 -2 37 -240z m7911 75 c13 -10 -128 -392 -207 -560 -43
-91 -80 -167 -81 -169 -4 -5 -204 131 -204 139 0 4 36 87 81 186 44 98 110
268 146 377 l64 198 97 -83 c53 -45 100 -84 104 -88z m-3662 133 l35 -5 -37
-33 c-42 -35 -46 -45 -22 -45 9 0 34 17 55 39 l39 38 267 -30 c148 -17 270
-32 272 -33 13 -10 -205 -861 -228 -886 -6 -7 -651 49 -660 57 -2 2 22 129 52
282 31 153 59 302 63 331 7 52 34 98 102 169 12 13 20 29 17 34 -9 13 -44 -14
-67 -51 -10 -18 -22 -30 -25 -27 -4 5 13 134 22 164 4 12 22 11 115 -4z
m-5040 -38 c0 -32 114 -519 160 -683 33 -118 59 -216 58 -217 -2 -1 -46 -8
-98 -14 -52 -6 -187 -22 -300 -36 -112 -13 -205 -23 -206 -22 -1 1 -36 101
-78 222 -91 262 -199 648 -182 654 6 2 150 25 321 51 170 26 313 48 318 49 4
0 7 -1 7 -4z m6008 -86 c174 -28 319 -52 321 -55 9 -8 -126 -458 -195 -649
-42 -115 -77 -212 -79 -213 -5 -5 -589 71 -597 77 -4 3 20 98 53 211 33 113
80 295 105 405 52 233 63 275 70 275 3 0 148 -23 322 -51z m-8827 -521 l81
-177 -53 -65 c-30 -35 -56 -65 -59 -65 -3 0 -40 75 -82 167 -79 170 -204 513
-195 536 3 7 27 46 53 87 l47 74 63 -190 c35 -104 100 -270 145 -367z m7164
492 c4 -12 20 -21 48 -25 23 -4 77 -25 120 -47 60 -30 85 -38 107 -33 17 4 52
-1 85 -11 54 -17 56 -17 106 3 44 19 49 20 45 5 -3 -9 -12 -61 -21 -115 -22
-131 -102 -507 -109 -515 -7 -6 -633 27 -656 35 -8 4 3 9 27 14 155 29 243 67
243 105 0 9 29 46 65 84 64 66 85 106 85 162 0 20 -6 27 -21 30 -12 2 -31 15
-42 30 -20 26 -20 26 2 61 11 19 21 41 21 50 0 19 -80 108 -113 126 -30 16
-40 36 -31 63 4 15 9 17 19 8 8 -7 17 -20 20 -30z m-5025 5 c0 -29 135 -486
189 -640 38 -110 71 -206 73 -214 2 -11 -54 -23 -261 -57 -146 -24 -265 -43
-266 -41 -20 33 -193 475 -219 557 -19 63 -49 154 -64 203 -16 48 -29 87 -28
87 0 1 118 25 261 54 247 51 315 62 315 51z m9471 -98 l56 -82 -72 -195 c-39
-107 -105 -262 -146 -344 l-75 -148 -57 63 c-31 35 -57 69 -57 75 0 6 40 96
89 200 49 105 112 261 142 351 30 89 56 162 59 162 3 0 30 -37 61 -82z m-2131
2 c140 -29 258 -55 262 -59 13 -10 -135 -435 -223 -640 -59 -136 -89 -194 -99
-193 -25 3 -515 86 -517 87 -1 1 32 94 72 206 41 113 95 277 120 365 90 315
84 297 108 292 12 -3 137 -29 277 -58z m-4235 -376 l7 -203 -79 0 c-92 0 -98
6 -108 98 -3 28 -8 75 -11 102 -5 45 -4 50 13 50 30 0 42 19 36 56 -4 27 -2
34 10 34 15 0 37 53 37 92 0 9 5 20 10 23 6 3 10 16 10 28 0 12 11 43 25 69
14 26 26 55 26 65 3 31 16 -202 24 -414z m-3639 150 c37 -115 106 -304 155
-422 49 -118 88 -215 86 -216 -17 -10 -443 -93 -448 -88 -4 5 -49 96 -99 203
-82 174 -246 597 -236 607 6 6 439 121 458 122 14 1 31 -41 84 -206z m-1847
-73 c22 -64 74 -187 116 -274 l75 -158 -17 -54 c-9 -30 -19 -54 -22 -53 -16 1
-158 325 -210 479 l-59 175 13 60 c7 33 14 62 15 65 1 5 27 -63 89 -240z
m10269 168 c125 -34 228 -62 230 -63 9 -6 -180 -470 -253 -620 -48 -99 -89
-182 -91 -184 -4 -5 -437 91 -445 98 -4 3 31 94 77 201 46 107 116 293 156
413 45 132 78 217 86 217 7 0 115 -28 240 -62z m1677 -64 l18 -65 -57 -157
c-31 -86 -94 -233 -139 -325 l-82 -169 -22 49 c-12 26 -22 56 -22 65 -1 9 36
93 82 185 45 92 107 239 137 325 30 87 58 158 61 158 3 0 14 -30 24 -66z
m-10602 -147 c38 -105 114 -288 169 -405 55 -118 98 -216 95 -218 -11 -11
-352 -103 -358 -96 -4 4 -50 89 -103 189 -79 150 -264 579 -254 588 4 3 371
134 378 134 3 1 36 -86 73 -192z m9381 68 c98 -35 181 -66 183 -69 19 -18
-329 -749 -363 -763 -11 -4 -351 90 -360 100 -2 2 40 96 95 208 54 112 128
283 164 379 36 96 69 183 72 193 4 9 13 17 19 17 7 0 92 -29 190 -65z m-9781
-218 c43 -106 123 -280 178 -386 56 -106 97 -196 93 -201 -12 -10 -244 -100
-259 -100 -20 0 -220 371 -300 557 -43 101 -77 184 -74 187 10 9 265 135 275
135 6 1 45 -86 87 -192z m10285 -2 c10 -9 -183 -409 -268 -555 -55 -96 -103
-176 -104 -178 -6 -6 -276 103 -276 112 0 5 45 92 99 195 55 102 126 251 159
331 33 80 69 166 81 192 l20 47 143 -70 c79 -39 144 -72 146 -74z m-10639 -38
c83 -200 146 -330 235 -487 53 -92 96 -170 96 -173 0 -6 -180 -107 -189 -106
-3 0 -54 82 -113 182 -98 168 -263 508 -256 527 3 9 179 139 188 139 3 0 20
-37 39 -82z m10769 -44 c53 -37 98 -67 100 -68 1 -1 -37 -85 -85 -186 -71
-151 -156 -302 -279 -496 l-14 -23 -88 47 c-48 25 -92 51 -99 57 -8 8 14 54
88 181 54 94 138 257 186 363 48 105 89 192 91 192 2 0 47 -30 100 -67z
m-10943 -205 c62 -139 185 -362 282 -514 12 -19 9 -25 -46 -72 l-59 -52 -100
163 c-56 89 -139 242 -186 340 l-85 178 52 64 c29 35 55 64 58 64 3 1 41 -77
84 -171z m4903 134 c2 -20 -4 -45 -16 -65 -15 -24 -21 -59 -26 -142 -4 -67 -3
-116 3 -125 7 -11 4 -21 -11 -37 -16 -17 -20 -34 -20 -88 0 -36 -4 -79 -8 -96
-13 -43 2 -65 47 -74 44 -8 67 13 60 58 -2 15 0 27 5 27 4 0 2 11 -4 25 -9 21
-8 27 6 38 17 12 17 16 2 50 -14 35 -14 38 2 44 9 3 25 13 34 20 23 21 39 8
28 -22 -8 -20 -5 -25 18 -34 17 -6 21 -10 10 -10 -10 -1 -18 -2 -19 -3 0 -2
-3 -34 -6 -73 -2 -38 -9 -76 -15 -83 -6 -6 -8 -26 -4 -43 4 -20 0 -44 -11 -66
-13 -27 -13 -37 -4 -43 10 -5 7 -12 -9 -23 -17 -12 -21 -22 -16 -41 6 -23 3
-26 -18 -26 -27 0 -44 16 -24 22 22 8 -3 28 -34 28 -27 0 -29 -3 -24 -23 l6
-24 -197 -7 c-108 -3 -199 -3 -203 1 -12 14 -119 776 -120 850 0 13 163 19
445 18 l120 0 3 -33z m176 -4 c3 -24 10 -178 16 -343 6 -165 14 -342 17 -392
l6 -93 -31 0 c-30 0 -32 2 -32 34 0 28 -6 38 -30 53 -34 20 -35 22 -15 49 16
22 20 60 6 68 -5 4 -3 19 6 36 8 16 13 41 11 54 -2 15 6 34 18 48 16 17 21 31
17 56 -3 18 -11 32 -19 32 -21 0 -17 17 6 23 29 8 26 37 -4 37 -14 0 -28 5
-31 10 -10 17 -44 11 -62 -10 -23 -26 -34 -25 -56 5 -16 22 -17 40 -13 130 4
77 10 111 23 132 11 17 17 43 16 70 l-1 43 73 0 74 0 5 -42z m772 -120 c-4
-90 -14 -284 -21 -433 -8 -148 -15 -271 -15 -272 0 -2 -150 -3 -334 -3 l-335
0 -5 53 c-5 47 -14 229 -32 660 l-7 157 378 0 378 0 -7 -162z m375 152 l98 0
17 -36 c14 -29 15 -40 6 -53 -24 -33 -35 -67 -38 -116 -1 -27 -3 -54 -3 -58
-1 -4 -22 -17 -48 -28 -35 -15 -57 -18 -92 -13 -25 4 -50 10 -56 14 -5 3 -26
13 -45 20 -19 7 -44 22 -56 32 -20 18 -21 18 -38 -1 -11 -12 -17 -34 -16 -62
1 -24 1 -66 1 -93 -1 -41 4 -55 25 -77 26 -27 26 -49 -1 -49 -8 0 -19 -9 -25
-20 -9 -17 -5 -22 27 -39 l38 -19 -27 -7 c-41 -10 -76 -70 -77 -130 0 -41 -5
-54 -26 -70 -14 -12 -25 -28 -25 -38 0 -9 -5 -17 -12 -17 -12 0 -11 11 17 570
8 157 15 289 15 294 0 5 51 6 122 3 66 -4 165 -7 219 -7z m-1917 -27 c3 -16
17 -122 31 -238 13 -115 38 -297 55 -404 17 -107 29 -195 27 -197 -6 -6 -627
-28 -633 -22 -19 20 -204 831 -192 844 2 2 159 12 349 22 189 11 347 20 351
21 3 0 9 -11 12 -26z m2316 1 c0 -46 -93 -711 -116 -825 l-5 -25 -122 3 c-355
9 -487 16 -487 25 0 5 10 18 22 27 16 13 22 32 26 77 5 66 30 111 67 120 13 3
31 14 41 25 9 10 28 19 41 19 52 0 83 78 50 124 -11 15 -17 16 -35 7 -23 -12
-91 -15 -108 -3 -12 8 -28 175 -18 185 3 3 14 2 23 -3 113 -61 182 -73 262
-45 58 20 69 38 69 106 0 37 5 61 14 69 8 6 20 27 26 46 10 29 9 39 -4 59
l-16 25 135 0 c117 0 135 -2 135 -16z m420 -14 c173 -12 316 -23 318 -25 7 -7
-57 -301 -125 -579 l-67 -268 -75 6 c-42 3 -184 11 -316 17 -132 6 -242 13
-244 15 -2 2 13 108 32 236 20 128 45 310 57 403 29 233 24 215 68 215 20 0
179 -9 352 -20z m-3476 -17 c2 -10 19 -90 36 -178 17 -88 58 -271 92 -408 33
-136 59 -249 57 -251 -2 -2 -121 -11 -264 -20 -143 -9 -275 -18 -294 -19 l-34
-2 -69 195 c-72 202 -195 626 -185 637 3 3 147 18 319 33 172 15 318 28 325
29 6 0 14 -7 17 -16z m7578 -76 l40 -48 -82 -167 c-77 -159 -276 -490 -293
-491 -12 -1 -117 89 -117 100 0 5 47 86 105 180 58 94 105 172 105 174 0 2 36
78 80 170 l80 168 21 -19 c12 -10 39 -41 61 -67z m-3404 37 c195 -17 312 -32
312 -38 0 -29 -125 -443 -184 -611 -37 -104 -69 -195 -70 -200 -3 -7 -100 -3
-292 12 -159 12 -294 22 -301 22 -7 1 6 67 39 194 27 105 69 287 94 402 24
116 46 220 49 233 4 16 11 22 23 18 9 -2 158 -17 330 -32z m-4808 -226 c34
-123 93 -311 131 -418 37 -107 67 -195 66 -196 -4 -4 -540 -55 -543 -52 -1 2
-42 95 -91 208 -78 177 -223 567 -223 597 0 5 118 24 273 42 149 18 279 34
287 35 8 2 20 4 26 5 6 0 39 -99 74 -221z m5450 156 c157 -20 289 -40 294 -45
13 -12 -112 -351 -216 -589 -50 -113 -92 -207 -94 -209 -4 -4 -537 48 -542 53
-1 2 27 88 64 192 51 144 194 610 194 631 0 5 3 5 300 -33z m-8511 -156 c43
-89 124 -237 180 -328 l102 -164 -17 -38 c-10 -22 -21 -41 -25 -44 -14 -8
-185 274 -272 451 l-89 180 18 58 c9 31 19 55 21 53 3 -2 39 -78 82 -168z
m2441 -65 c40 -115 112 -297 161 -406 83 -187 86 -197 66 -202 -34 -7 -414
-55 -440 -55 -19 0 -37 28 -124 193 -87 165 -271 583 -261 592 4 4 476 82 504
84 19 1 30 -23 94 -206z m6664 132 c142 -24 261 -46 263 -49 10 -9 -167 -406
-260 -581 -55 -104 -101 -191 -103 -193 -2 -3 -476 58 -481 62 -2 1 35 85 80
187 46 101 119 282 162 402 43 119 78 217 79 217 1 0 117 -20 260 -45z m2253
-12 l22 -57 -87 -171 c-72 -139 -264 -455 -278 -455 -2 0 -15 20 -29 44 l-26
45 107 168 c59 92 141 239 182 326 41 86 78 157 81 157 3 0 16 -26 28 -57z
m-9456 -218 c48 -115 130 -291 182 -390 52 -99 91 -181 87 -183 -5 -2 -95 -18
-202 -37 -146 -25 -196 -31 -204 -22 -6 7 -58 93 -117 192 -92 157 -277 525
-277 552 0 6 89 29 198 52 108 23 202 44 207 46 29 11 44 -14 126 -210z m7729
129 c118 -26 216 -48 218 -49 1 -1 -38 -86 -87 -188 -75 -156 -235 -440 -302
-538 l-18 -26 -203 35 c-112 19 -204 35 -205 36 -2 1 40 83 93 182 52 98 134
269 181 379 95 222 91 215 101 215 4 0 104 -21 222 -46z m-8201 -211 c51 -109
142 -280 203 -381 60 -101 108 -184 106 -186 -1 -1 -73 -17 -158 -35 -85 -19
-159 -35 -165 -37 -16 -6 -244 355 -344 543 -50 95 -91 176 -91 181 0 7 303
102 351 111 3 1 47 -88 98 -196z m9868 -38 c-47 -93 -125 -231 -174 -305 -84
-128 -88 -133 -91 -101 -3 28 12 57 97 185 55 83 132 218 173 299 60 122 74
143 76 120 3 -19 -21 -78 -81 -198z m-1058 89 c2 -2 -39 -84 -92 -182 -120
-227 -330 -545 -355 -538 -9 2 -80 19 -157 36 -77 17 -145 33 -152 35 -7 2 32
75 98 185 60 100 151 268 203 375 l94 193 178 -51 c99 -28 181 -52 183 -53z
m-5201 62 c8 -19 6 -27 -10 -43 -17 -18 -18 -25 -9 -59 7 -24 7 -40 1 -42 -5
-2 -6 -10 -3 -19 4 -11 0 -14 -18 -11 -19 2 -23 8 -21 28 1 14 4 50 6 80 5
102 5 98 25 93 10 -2 23 -15 29 -27z m1212 -51 c0 -52 -50 -71 -58 -22 -2 10
3 17 14 17 10 0 14 5 11 14 -5 13 5 23 26 25 4 1 7 -15 7 -34z m-5195 -180
c48 -93 138 -246 199 -340 62 -93 115 -175 118 -181 4 -6 -41 -24 -123 -48
-72 -21 -132 -36 -133 -34 -81 102 -275 396 -344 520 -52 92 -95 170 -95 174
-1 4 59 30 133 59 120 47 136 51 146 36 6 -9 50 -92 99 -186z m5112 140 c8
-21 3 -24 -30 -18 -22 4 -25 8 -16 19 15 19 38 18 46 -1z m4247 -36 c72 -28
132 -52 134 -54 1 -1 -44 -83 -101 -181 -107 -185 -330 -504 -352 -504 -11 0
-246 69 -252 74 -2 1 52 85 120 187 67 101 163 262 212 357 50 94 94 172 99
172 5 0 68 -23 140 -51z m-9664 -200 c56 -100 156 -256 221 -348 65 -91 115
-169 111 -172 -4 -4 -44 -23 -89 -42 l-83 -35 -63 81 c-152 196 -195 258 -288
415 -55 91 -98 169 -97 174 3 8 165 105 179 107 4 1 53 -81 109 -180z m9924
85 c47 -25 88 -50 92 -55 14 -24 -301 -495 -437 -653 -5 -6 -169 52 -197 70
-2 1 51 75 116 165 66 90 166 244 222 342 56 97 106 177 110 177 4 0 46 -21
94 -46z m-10144 -187 c52 -89 150 -236 218 -326 68 -90 125 -168 127 -175 6
-14 -104 -81 -115 -70 -71 79 -259 336 -338 462 -56 90 -102 165 -102 167 0 5
104 105 110 104 3 0 48 -73 100 -162z m10325 72 c28 -22 54 -45 59 -49 15 -15
-189 -324 -322 -487 l-123 -152 -57 36 c-31 20 -59 37 -61 39 -2 2 52 74 119
161 66 87 167 233 223 325 56 92 104 168 107 168 3 0 28 -18 55 -41z m-5714
-2 c-1 -4 -1 -14 -1 -22 0 -20 -29 -19 -37 1 -3 9 0 20 8 25 15 10 31 8 30 -4z
m-4736 -199 c55 -89 155 -230 222 -314 l121 -152 -27 -32 -27 -33 -112 136
c-62 75 -161 212 -221 304 l-108 169 21 42 c11 23 22 42 25 42 4 0 51 -73 106
-162z m4673 91 c-5 -16 -8 -39 -5 -50 5 -17 3 -18 -10 -7 -12 10 -17 9 -27 -4
-7 -9 -17 -13 -24 -9 -13 8 -101 6 -109 -3 -3 -2 0 -13 6 -24 8 -16 5 -24 -20
-48 -37 -36 -38 -87 -1 -92 18 -3 22 1 22 23 0 25 1 25 25 9 16 -10 34 -14 50
-10 38 10 48 -2 27 -32 -33 -50 -47 -83 -36 -90 10 -7 36 -82 28 -82 -3 0 -9
11 -14 25 -6 15 -17 25 -30 25 -11 0 -20 5 -20 10 0 6 5 10 10 10 6 0 10 9 10
20 0 22 -12 25 -41 9 -12 -6 -18 -17 -15 -25 3 -8 1 -14 -4 -14 -14 0 -13 -37
1 -46 8 -5 8 -8 0 -14 -9 -5 -9 -14 -1 -34 9 -24 13 -26 25 -16 22 19 28 7 17
-34 -9 -32 -8 -38 12 -53 12 -10 25 -33 29 -51 6 -29 4 -32 -18 -32 -47 0 -43
-44 6 -54 21 -4 29 -11 29 -26 0 -19 -6 -20 -135 -20 -74 0 -138 0 -142 -1
-11 0 -65 273 -103 516 -17 110 -33 213 -36 228 l-6 28 207 -3 c184 -3 207 -5
216 -20 6 -11 22 -18 40 -18 23 0 30 4 28 18 -2 27 0 34 10 27 6 -3 6 -17 -1
-36z m166 -1 c2 -24 12 -184 21 -357 9 -173 19 -329 22 -348 l6 -33 -77 0
c-56 0 -76 3 -76 13 0 18 -39 53 -67 62 -24 7 -29 16 -15 29 4 4 8 12 8 17 1
5 2 14 3 19 0 6 12 10 26 10 25 0 33 14 15 25 -6 4 -8 21 -4 43 l7 36 -26 -17
c-33 -22 -37 -21 -37 3 0 14 7 20 23 20 20 1 21 2 5 14 -24 18 -23 25 3 19 19
-5 21 -3 14 28 -6 29 -5 32 7 22 9 -8 25 -10 43 -5 l29 8 -31 13 c-17 7 -37
26 -46 46 -11 23 -25 35 -46 40 -33 7 -33 25 0 25 10 0 19 5 19 10 0 6 -4 10
-10 10 -5 0 -7 6 -4 13 2 7 -7 23 -20 36 -19 17 -32 22 -51 17 -27 -7 -65 8
-65 25 0 5 11 14 25 21 20 9 22 14 14 29 -8 16 -6 19 13 16 28 -2 39 -16 33
-38 -6 -19 10 -35 48 -44 19 -5 27 -3 27 7 0 7 8 18 19 25 17 11 36 63 32 90
-1 7 9 15 23 19 22 5 24 9 15 31 -14 39 -11 43 30 43 39 0 40 -1 45 -42z m621
28 c-56 -24 -122 -120 -109 -158 12 -40 94 -117 131 -124 l34 -6 -3 -56 -3
-56 -74 -52 c-113 -80 -116 -84 -120 -171 -1 -7 -10 -17 -21 -23 -15 -8 -23
-6 -39 11 -24 26 -46 17 -30 -12 12 -23 12 -22 -19 -38 -12 -6 -29 -27 -37
-47 l-14 -35 -123 3 -123 3 -7 85 c-8 96 -38 623 -38 664 l0 26 313 0 c268 -1
308 -3 282 -14z m-1279 -206 c18 -113 47 -285 66 -383 19 -98 32 -179 29 -181
-3 -2 -128 -7 -276 -11 l-271 -7 -56 179 c-58 183 -162 572 -155 579 4 4 589
32 617 30 11 -1 22 -47 46 -206z m1348 88 c-3 -68 -7 -128 -9 -135 -11 -35
-145 65 -145 109 0 29 75 118 100 118 9 0 23 7 30 15 7 8 16 15 21 15 4 0 6
-55 3 -122z m471 117 l221 -8 -32 -206 c-40 -254 -94 -543 -104 -555 -5 -4
-135 -5 -290 -1 l-282 8 6 76 c3 42 8 118 12 169 4 61 11 98 21 107 8 8 13 23
12 32 -1 10 3 31 10 47 10 26 9 34 -9 58 -19 25 -20 37 -14 140 3 62 7 118 9
123 4 14 178 18 440 10z m4568 -42 l26 -41 -108 -164 c-59 -90 -159 -225 -221
-300 l-114 -138 -28 27 c-15 15 -28 32 -28 39 0 6 53 77 118 158 65 80 140
181 167 223 93 147 157 244 160 241 1 -2 14 -22 28 -45z m-3955 16 c239 -11
272 -14 268 -28 -3 -9 -23 -88 -46 -176 -22 -88 -68 -251 -103 -362 l-62 -203
-55 0 c-70 0 -493 20 -496 23 -2 1 11 72 27 157 28 148 99 578 99 601 0 7 17
9 48 5 26 -3 170 -11 320 -17z m-3067 -229 c32 -124 80 -294 107 -378 33 -101
46 -155 39 -157 -29 -8 -501 -24 -508 -18 -31 32 -301 725 -287 738 5 5 531
44 567 41 23 -1 27 -12 82 -226z m3693 190 c143 -11 261 -22 263 -24 12 -12
-258 -700 -287 -730 -8 -8 -473 12 -501 23 -14 5 -9 28 37 176 30 94 77 261
106 373 l52 202 35 0 c20 0 153 -9 295 -20z m-4305 -202 c39 -112 104 -279
145 -373 41 -93 72 -172 70 -174 -3 -3 -467 -40 -470 -37 -1 1 -46 84 -101
186 -90 166 -261 536 -252 544 2 2 121 15 264 28 143 14 263 26 266 27 3 0 38
-90 78 -201z m-2782 -255 c104 -127 138 -183 113 -183 -4 0 -54 56 -110 125
-120 147 -310 437 -310 474 0 18 26 -16 95 -123 52 -82 147 -214 212 -293z
m7653 407 c124 -12 235 -25 247 -28 22 -7 20 -12 -60 -192 -66 -148 -219 -447
-266 -519 -7 -11 -46 -10 -242 5 -129 9 -235 18 -237 19 -1 1 32 82 73 179 42
98 105 259 141 359 35 100 66 188 69 195 3 7 14 10 27 8 13 -3 124 -15 248
-26z m-3150 -20 c-8 -5 -17 -7 -19 -4 -3 3 1 9 9 14 8 5 17 7 19 4 3 -3 -1 -9
-9 -14z m-2276 -180 c44 -102 123 -263 174 -358 52 -96 92 -175 90 -177 -9 -9
-412 -45 -418 -38 -4 4 -56 85 -116 178 -107 165 -302 524 -287 526 4 0 100
13 213 29 113 15 218 27 234 27 27 -2 32 -11 110 -187z m8118 -32 c-85 -128
-234 -319 -312 -401 -4 -5 -10 3 -12 18 -5 22 14 49 116 173 67 81 164 212
216 291 87 133 95 142 98 113 3 -25 -16 -60 -106 -194z m-2117 163 c107 -14
196 -30 195 -36 0 -27 -186 -360 -288 -518 -107 -166 -117 -178 -141 -174 -14
3 -108 13 -208 23 -101 9 -183 21 -183 25 0 5 41 82 90 173 77 139 146 284
241 504 18 42 19 42 58 36 22 -3 128 -18 236 -33z m-6491 -198 c53 -101 141
-253 197 -339 55 -86 102 -161 105 -168 3 -9 -38 -17 -148 -30 -84 -10 -165
-20 -179 -23 -24 -4 -37 10 -151 164 -119 161 -337 508 -326 519 9 9 392 71
400 65 3 -3 49 -88 102 -188z m6927 132 c111 -19 203 -36 205 -37 8 -8 -226
-375 -325 -509 -62 -85 -117 -158 -121 -162 -7 -8 -322 29 -352 41 -15 6 -1
33 91 173 59 91 150 247 202 347 52 100 95 182 96 182 2 0 93 -16 204 -35z
m-7361 -187 c57 -95 159 -249 227 -342 68 -92 123 -169 121 -171 -7 -5 -298
-49 -301 -44 -191 231 -271 336 -368 480 l-118 178 92 20 c51 12 119 27 152
35 33 8 67 15 76 15 11 1 51 -58 119 -171z m4097 115 c-3 -10 -5 -4 -5 12 0
17 2 24 5 18 2 -7 2 -21 0 -30z m3674 -8 c84 -19 154 -37 156 -39 11 -10 -231
-352 -348 -495 l-131 -158 -149 26 c-82 14 -149 28 -149 31 0 4 51 74 113 157
61 82 162 231 222 331 61 100 115 182 122 182 7 0 80 -16 164 -35z m-8121
-187 c62 -94 170 -241 241 -327 106 -129 126 -157 111 -163 -9 -4 -61 -17
-116 -29 l-98 -21 -23 23 c-127 136 -282 323 -374 452 -62 87 -111 160 -109
162 5 5 231 74 244 75 7 0 62 -77 124 -172z m3535 142 c3 -5 1 -10 -4 -10 -6
0 -11 5 -11 10 0 6 2 10 4 10 3 0 8 -4 11 -10z m4918 -40 c64 -18 117 -37 117
-41 0 -4 -51 -77 -112 -162 -138 -189 -374 -457 -403 -457 -36 1 -213 45 -215
53 -1 5 51 72 116 150 64 78 170 222 236 320 65 98 124 177 131 175 7 -2 65
-19 130 -38z m-4885 -2 c-3 -7 -15 -14 -29 -16 -24 -4 -24 -3 -4 12 24 19 38
20 33 4z m-3848 -179 c68 -94 183 -238 256 -320 l134 -148 -87 -27 -86 -26
-140 146 c-117 124 -377 444 -377 465 0 3 40 22 88 43 48 20 88 37 89 37 0 1
56 -76 123 -170z m4675 -1 l-10 -163 -152 -3 c-148 -2 -151 -2 -146 18 7 25
47 58 82 67 41 9 60 32 78 92 10 32 28 65 43 76 28 23 102 73 110 74 3 1 1
-72 -5 -161z m4300 101 c44 -18 84 -36 89 -40 14 -13 -218 -304 -362 -454 -74
-77 -139 -142 -144 -144 -9 -3 -167 37 -177 45 -2 2 55 68 126 146 71 79 174
204 228 278 140 193 145 200 153 200 4 0 43 -14 87 -31z m-5188 -82 c6 -32 6
-60 2 -63 -5 -3 -9 8 -9 25 0 16 -4 33 -10 36 -5 3 -10 15 -10 26 0 10 -4 19
-9 19 -5 0 -7 9 -4 21 9 34 30 2 40 -64z m-3990 -104 c67 -87 180 -220 252
-296 72 -76 131 -141 131 -146 0 -5 -23 -18 -52 -30 l-52 -22 -129 128 c-108
108 -387 437 -387 457 0 9 104 75 111 70 4 -2 60 -75 126 -161z m9369 95 c30
-18 53 -36 52 -40 -11 -30 -277 -343 -365 -428 -163 -158 -142 -147 -208 -120
-30 12 -55 24 -55 27 0 3 61 68 135 146 75 78 189 211 253 294 64 84 121 153
125 153 5 0 33 -15 63 -32z m-9516 -163 c56 -71 170 -199 253 -283 l151 -153
-27 -27 -27 -27 -141 140 c-77 77 -194 205 -259 284 l-118 145 26 33 c14 19
28 30 32 26 4 -4 53 -66 110 -138z m9650 43 c0 -5 -54 -72 -119 -151 -105
-125 -203 -227 -348 -361 l-41 -38 -32 22 -31 22 163 167 c90 91 206 221 258
288 l95 122 28 -31 c15 -18 27 -36 27 -40z m-9688 -165 c59 -72 166 -187 238
-255 95 -91 129 -129 124 -141 -16 -44 -504 482 -504 543 1 29 -17 47 142
-147z m9718 106 c0 -48 -472 -551 -501 -534 -22 14 -2 40 119 154 70 66 181
185 247 265 66 79 123 142 127 140 5 -3 8 -14 8 -25z m-5270 -51 c0 -18 3 -57
6 -85 5 -42 4 -53 -7 -53 -10 0 -15 14 -16 42 -1 34 -7 47 -30 65 -30 25 -59
30 -65 11 -4 -10 -58 35 -58 47 0 3 38 5 85 5 l85 0 0 -32z m290 12 c14 -23
12 -30 -9 -30 -33 0 -32 -17 2 -33 17 -9 38 -25 44 -36 12 -19 11 -20 -17 -14
-20 4 -36 0 -48 -9 -9 -9 -42 -23 -72 -33 -30 -10 -59 -21 -64 -26 -6 -5 -18
-1 -30 10 -12 10 -30 21 -41 23 -18 3 -20 12 -23 87 l-3 83 126 -3 c98 -3 128
-7 135 -19z m306 -87 c-3 -60 -9 -150 -13 -201 l-6 -92 -26 17 c-14 9 -35 22
-46 28 -76 43 -85 51 -91 84 -4 18 -20 49 -36 67 -28 32 -29 34 -9 34 29 0 26
19 -9 55 -17 17 -32 42 -35 54 -2 12 -7 31 -10 42 -6 18 0 19 141 19 l147 0
-7 -107z m562 91 c27 -3 42 -10 39 -17 -5 -12 -11 -13 -38 -2 -21 8 -20 -32 1
-45 12 -8 12 -10 -4 -16 -11 -4 -21 -2 -27 7 -5 8 -9 10 -9 5 0 -5 -7 -3 -15
4 -16 13 -35 6 -35 -15 0 -24 60 -76 81 -70 10 4 19 3 19 -2 0 -25 -86 -429
-105 -493 -4 -13 -38 -15 -243 -12 l-239 3 4 57 c8 131 12 142 42 142 31 0 51
16 51 41 0 15 -6 17 -34 12 -18 -3 -36 -1 -39 3 -3 6 19 409 23 409 174 0 497
-7 528 -11z m-1721 -174 c18 -96 49 -242 69 -323 20 -82 34 -150 31 -153 -3
-3 -106 -8 -230 -11 l-224 -6 -60 154 c-34 85 -85 232 -116 327 l-55 172 32 1
c17 1 110 5 206 9 96 4 206 6 245 6 l69 -1 33 -175z m287 169 c-3 -6 -7 -31
-9 -55 -3 -54 15 -80 46 -64 25 14 24 45 -2 63 -17 12 -18 17 -6 24 7 4 18 16
23 25 6 11 14 14 23 9 11 -7 11 -12 -1 -30 -16 -26 -2 -53 33 -61 31 -8 38
-40 10 -47 -36 -9 -25 -40 23 -61 16 -7 26 -15 24 -17 -6 -7 -87 22 -105 36
-10 9 -14 7 -20 -6 -8 -22 28 -54 69 -62 15 -3 28 -11 28 -17 0 -7 9 -22 20
-34 11 -12 20 -26 20 -31 0 -15 65 -33 93 -26 31 8 34 1 42 -125 3 -52 8 -112
11 -132 l6 -38 -241 0 -240 0 -10 38 c-35 133 -131 587 -131 618 0 2 68 4 151
4 105 0 148 -3 143 -11z m1844 -8 c106 -5 195 -11 198 -14 9 -9 -90 -319 -156
-490 l-59 -152 -228 4 c-125 2 -229 5 -231 6 -2 1 13 72 32 156 19 85 44 204
56 264 12 61 24 112 26 114 2 2 11 -6 21 -17 16 -19 23 -20 57 -12 22 5 44 7
48 4 4 -3 8 4 8 14 0 15 9 21 39 26 21 3 44 12 51 20 19 24 8 51 -23 54 -15 2
-27 7 -27 12 0 11 -53 7 -62 -5 -5 -7 -14 -6 -28 3 -12 7 -20 8 -20 2 0 -5
-11 -10 -25 -10 -16 0 -25 6 -25 15 0 18 49 19 348 6z m-2689 -168 c29 -93 80
-237 112 -322 33 -84 57 -156 54 -160 -10 -9 -418 -22 -426 -14 -36 39 -319
627 -307 638 3 2 346 20 459 23 l55 2 53 -167z m3204 142 c126 -7 230 -15 232
-17 12 -12 -278 -617 -304 -632 -7 -5 -424 13 -429 18 -1 2 24 73 57 158 33
86 66 178 74 204 8 27 31 102 52 167 35 111 38 117 63 117 15 0 130 -7 255
-15z m-3729 -168 c38 -89 106 -232 152 -317 l83 -155 -37 -6 c-20 -4 -110 -10
-198 -13 l-162 -7 -98 143 c-114 167 -290 482 -271 486 20 4 358 30 412 31
l50 1 69 -163z m3017 135 c7 -19 5 -22 -14 -22 -12 0 -29 5 -37 10 -13 9 -12
12 5 25 24 19 36 15 46 -13z m-126 9 c3 -6 -4 -15 -15 -21 -16 -8 -20 -8 -20
3 0 25 23 36 35 18z m1375 -12 c85 -6 165 -14 177 -17 21 -7 18 -14 -63 -162
-47 -85 -131 -224 -187 -309 l-102 -154 -120 7 c-66 4 -156 9 -201 12 l-81 6
79 149 c43 81 108 217 144 301 91 211 76 191 142 184 32 -3 127 -11 212 -17z
m-4754 -161 c49 -90 134 -232 191 -315 57 -84 103 -154 103 -156 0 -2 -55 -7
-122 -11 -68 -4 -148 -9 -178 -12 l-55 -6 -122 154 c-68 84 -168 223 -223 308
l-100 155 203 21 c111 12 205 22 209 23 4 0 46 -72 94 -161z m3414 122 c-24
-15 -37 -11 -16 5 11 8 22 12 25 9 3 -3 -1 -9 -9 -14z m1825 -6 c88 -9 161
-17 163 -19 4 -4 -205 -322 -216 -329 -6 -3 -19 4 -29 16 -13 17 -26 22 -50
20 -22 -2 -33 1 -33 9 0 10 -3 10 -11 2 -17 -17 -3 -46 31 -65 46 -26 39 -52
-46 -158 -42 -52 -77 -96 -79 -98 -1 -2 -82 3 -179 9 -135 10 -176 16 -172 25
3 7 45 73 94 146 49 73 117 185 152 248 34 63 76 139 93 169 l30 53 46 -6 c25
-3 118 -13 206 -22z m-5670 -161 c54 -85 152 -221 216 -302 73 -91 113 -148
106 -152 -7 -4 -50 -9 -97 -13 -47 -4 -110 -9 -140 -12 l-56 -6 -136 149 c-75
82 -186 216 -247 298 -100 135 -109 150 -88 153 118 18 288 40 312 41 28 0 36
-10 130 -156z m2484 134 c6 -8 8 -17 4 -21 -4 -4 -1 -11 6 -15 7 -5 10 -14 7
-20 -9 -14 -49 22 -53 49 -3 23 19 27 36 7z m401 -8 c0 -5 -7 -9 -15 -9 -8 0
-15 7 -15 15 0 9 6 12 15 9 8 -4 15 -10 15 -15z m3175 -10 c88 -12 162 -23
164 -25 9 -9 -230 -315 -343 -438 -71 -78 -131 -143 -132 -145 -5 -5 -314 21
-314 27 0 11 152 192 161 192 5 0 16 12 22 28 7 15 65 107 130 205 78 118 122
177 134 177 10 0 90 -9 178 -21z m-3184 -19 c31 0 52 -21 43 -44 -8 -22 81
-108 139 -136 57 -27 93 -55 79 -64 -6 -4 -48 -3 -94 2 -46 5 -126 8 -178 8
-67 -2 -104 2 -125 13 -24 12 -26 16 -12 19 10 2 24 -1 31 -7 10 -8 17 -7 26
4 11 14 15 14 29 1 13 -12 19 -12 33 -2 21 16 10 35 -28 45 -43 11 -43 37 0
45 36 7 50 24 36 46 -6 9 -21 11 -54 7 -25 -4 -46 -4 -46 -2 0 15 76 81 85 74
5 -5 21 -9 36 -9z m-140 -19 c-9 -6 -12 -19 -8 -39 4 -20 1 -34 -8 -42 -12
-10 -15 -9 -15 8 0 45 13 82 29 82 13 0 13 -2 2 -9z m-165 -16 c-23 -18 -36
-19 -36 -4 0 5 4 8 9 4 5 -3 12 -1 16 5 3 5 12 10 18 10 7 0 3 -7 -7 -15z m79
-5 c-3 -5 -11 -10 -16 -10 -6 0 -7 5 -4 10 3 6 11 10 16 10 6 0 7 -4 4 -10z
m30 -48 c-5 -26 -9 -29 -36 -23 -16 3 -30 11 -31 16 -1 10 64 46 70 40 2 -2 1
-17 -3 -33z m85 -22 c0 -11 -2 -20 -4 -20 -2 0 -6 9 -9 20 -3 11 -1 20 4 20 5
0 9 -9 9 -20z m-237 -7 c42 -9 33 -30 -11 -24 -7 1 -23 12 -34 23 -20 20 -20
21 -2 14 10 -4 31 -10 47 -13z m117 -83 c-12 -7 -12 -10 -1 -10 7 0 11 -6 7
-15 -3 -9 0 -15 10 -15 8 0 18 -10 22 -21 5 -12 24 -27 45 -34 37 -13 42 -10
38 23 -1 6 3 12 9 12 5 0 10 -9 10 -19 0 -29 68 -61 117 -54 25 3 43 1 47 -6
12 -20 36 -12 36 12 0 21 4 22 65 21 50 -1 68 2 76 15 7 11 9 -4 5 -54 -3 -38
-6 -82 -6 -98 l0 -27 -242 2 -243 3 -12 130 c-11 130 -9 145 22 145 6 0 3 -5
-5 -10z"/>
<path d="M6987 10764 c-9 -10 2 -24 19 -24 8 0 14 7 14 15 0 15 -21 21 -33 9z"/>
<path d="M7012 10721 c-10 -6 -10 -10 2 -20 10 -9 16 -9 21 -1 10 16 -7 31
-23 21z"/>
<path d="M7276 10666 c6 -17 32 -28 44 -21 17 10 -2 35 -26 35 -16 0 -22 -4
-18 -14z"/>
<path d="M7420 10625 c0 -9 9 -15 25 -15 16 0 25 6 25 15 0 9 -9 15 -25 15
-16 0 -25 -6 -25 -15z"/>
<path d="M7443 10575 c-12 -32 25 -63 42 -35 3 6 20 10 38 10 29 0 30 1 14 17
-22 22 -86 27 -94 8z"/>
<path d="M6410 10326 c0 -19 7 -29 26 -36 35 -14 44 -13 44 5 0 8 -5 15 -12
15 -6 0 -22 10 -35 22 l-23 21 0 -27z"/>
<path d="M6515 10311 c-3 -5 5 -17 17 -25 20 -14 23 -14 31 -1 4 8 5 20 2 25
-8 13 -42 13 -50 1z"/>
<path d="M7570 10309 c0 -24 23 -21 28 4 2 10 -3 17 -12 17 -10 0 -16 -9 -16
-21z"/>
<path d="M7503 10238 c-26 -33 -26 -40 -2 -33 23 7 39 22 39 38 0 12 -27 8
-37 -5z"/>
<path d="M7626 10141 c-18 -7 -18 -8 -2 -14 27 -11 49 -8 70 8 19 14 18 15
-15 14 -19 0 -43 -4 -53 -8z"/>
<path d="M3293 8584 c-18 -14 -33 -32 -33 -40 0 -17 34 -19 47 -1 10 11 26 67
21 67 -2 0 -18 -12 -35 -26z"/>
<path d="M12540 5975 c0 -9 5 -15 11 -13 6 2 11 8 11 13 0 5 -5 11 -11 13 -6
2 -11 -4 -11 -13z"/>
<path d="M414 3905 c-9 -22 1 -29 15 -11 8 10 9 16 1 21 -5 3 -13 -1 -16 -10z"/>
<path d="M296 3695 c-10 -26 -7 -35 9 -35 17 0 19 18 6 38 -7 11 -10 10 -15
-3z"/>
<path d="M5652 1268 c2 -17 11 -24 31 -26 30 -4 33 4 13 31 -20 25 -48 22 -44
-5z"/>
<path d="M6780 670 c-31 -3 -45 -10 -45 -20 0 -14 8 -15 88 -11 17 1 24 26 10
33 -5 2 -28 1 -53 -2z"/>
<path d="M2148 9917 c-67 -62 -76 -74 -63 -85 13 -11 22 -7 60 24 25 20 45 40
45 45 0 5 13 24 30 42 26 30 30 48 11 47 -3 0 -41 -33 -83 -73z"/>
<path d="M11422 9010 c1 -13 9 -25 16 -28 17 -5 15 23 -4 39 -14 11 -15 10
-12 -11z"/>
<path d="M9290 161 c-14 -4 -26 -15 -28 -24 -5 -26 23 -21 42 8 9 14 15 25 14
24 -2 -1 -14 -4 -28 -8z"/>
<path d="M7985 30 c-3 -5 5 -15 19 -21 20 -9 29 -9 41 1 8 7 12 16 9 21 -7 12
-61 11 -69 -1z"/>
</g>
</svg>
